#N canvas 80 86 1281 650 12;
#X obj 750 193 vradio 40 1 0 8 row empty row_idx 0 -8 0 10 -4032 -1
-1 1;
#N canvas 232 110 1028 653 launchpadControl 0;
#X obj 85 402 list prepend 144;
#X obj 85 444 list trim;
#X obj 85 255 pack 0 0;
#X obj 137 110 * 16;
#X obj 137 147 +;
#X obj 137 185 +;
#X obj 137 83 r green;
#X obj 222 127 r red;
#X obj 223 165 r flags;
#X obj 85 560 route normal flash doubleBuffer;
#X msg 85 596 12;
#X msg 156 596 8;
#X msg 227 596 0;
#X obj 85 653 s flags;
#X text 104 234 colour/velocity;
#X text 56 233 key;
#X obj 85 137 * 16;
#X obj 85 174 +;
#X obj 10 154 r column;
#X obj 103 60 r row;
#X obj 85 486 midiout;
#X obj 85 522 r mode;
#X obj 85 109 f;
#X obj 219 401 list prepend 128;
#X obj 85 289 list prepend noteOn;
#X obj 85 -2 r set;
#X obj 192 0 r reset;
#X obj 701 379 r resetAll;
#X obj 576 272 r allOnLow;
#X obj 664 268 r allOnMedium;
#X obj 767 268 r allOnFull;
#X obj 617 183 * 16;
#X obj 617 208 +;
#X obj 700 163 r denominator;
#X obj 700 188 - 3;
#X obj 617 125 r numerator;
#X obj 617 150 - 1;
#X obj 564 424 list prepend 176;
#X obj 564 387 pack 0 0;
#X obj 564 458 list trim;
#X obj 564 99 r setDutyCycle;
#X obj 564 491 print duty;
#X msg 701 404 list 0 0;
#X obj 801 329 r mapGrid;
#X obj 801 354 route 0 1;
#X msg 801 379 list 0 1;
#X msg 831 405 list 0 2;
#X msg 576 297 list 0 125;
#X msg 664 298 list 0 126;
#X msg 767 293 list 0 127;
#X obj 85 342 route noteOn noteOff;
#X obj 85 316 list trim;
#X msg 215 55 noteOff;
#X msg 215 85 noteOn;
#X obj 361 -18 r liveControl;
#X obj 336 424 list prepend 176;
#X msg 361 37 104;
#X msg 378 62 105;
#X msg 397 87 106;
#X msg 415 112 107;
#X obj 361 12 route 0 1 2 3 4 5 6 7;
#X msg 433 137 108;
#X msg 451 165 109;
#X msg 469 192 110;
#X msg 487 218 111;
#X obj 361 238 pack 0 0;
#X obj 137 218 t f f;
#X obj -76 424 r bufferSelection;
#X floatatom 554 582 0 0 0 0 - - -;
#X obj 531 534 notein;
#X floatatom 531 600 0 0 0 0 - - -;
#X floatatom 577 564 0 0 0 0 - - -;
#X text 489 581 velocity;
#X floatatom 639 583 0 0 0 0 - - -;
#X floatatom 623 561 0 0 0 0 - - -;
#X floatatom 655 608 0 0 0 0 - - -;
#X obj 623 534 ctlin;
#X text 675 560 value;
#X text 682 611 channel;
#X text 667 533 (all controllers \, omni);
#X text 670 583 controller #;
#N canvas 5 180 1004 583 launchpadInput 0;
#X obj 31 38 inlet;
#X obj 64 64 inlet;
#X obj 98 88 inlet;
#X obj 262 25 inlet;
#X obj 295 49 inlet;
#X obj 329 75 inlet;
#X obj 31 117 pack 0 0 0;
#X obj 31 146 list trim;
#X obj 262 104 pack 0 0 0;
#X obj 262 135 list trim;
#X obj 262 173 route 104 105 106 107 108 109 110 111;
#X obj 31 175 route 0 1 2 3;
#X obj 137 175 route 4 5 6 7;
#X obj 25 326 route 16 17 18 19 20 21 22 23 32 33 34 35 36 37 38 39
;
#X obj 425 326 route 48 49 50 51 52 53 54 55 64 65 66 67 68 69 70 71
;
#X obj 27 479 route 80 81 82 83 84 85 86 87 96 97 98 99;
#X obj 339 480 route 100 101 102 103 112 113 114 115 116 117 118 119
;
#X obj 729 480 route 8 24 40 56 72 88 104 120;
#X obj 31 210 s \$0-bang1;
#X obj 54 236 s \$0-bang2;
#X obj 75 263 s \$0-bang3;
#X obj 97 288 s \$0-bang4;
#X obj 137 209 s \$0-bang5;
#X obj 160 237 s \$0-bang6;
#X obj 181 264 s \$0-bang7;
#X obj 203 287 s \$0-bang8;
#X obj 262 197 s \$0-ct1;
#X obj 295 223 s \$0-ct2;
#X obj 326 250 s \$0-ct3;
#X obj 358 275 s \$0-ct4;
#X obj 390 198 s \$0-ct5;
#X obj 422 224 s \$0-ct6;
#X obj 454 248 s \$0-ct7;
#X obj 486 274 s \$0-ct8;
#X obj 729 515 s \$0-cs1;
#X obj 754 541 s \$0-cs2;
#X obj 780 568 s \$0-cs3;
#X obj 807 593 s \$0-cs4;
#X obj 832 516 s \$0-cs5;
#X obj 858 542 s \$0-cs6;
#X obj 884 566 s \$0-cs7;
#X obj 911 592 s \$0-cs8;
#X obj 701 356 s \$0-bang37;
#X obj 724 382 s \$0-bang38;
#X obj 747 412 s \$0-bang39;
#X obj 771 434 s \$0-bang40;
#X obj 679 444 s \$0-bang36;
#X obj 655 414 s \$0-bang35;
#X obj 633 390 s \$0-bang34;
#X obj 609 355 s \$0-bang33;
#X obj 517 354 s \$0-bang29;
#X obj 540 380 s \$0-bang30;
#X obj 563 410 s \$0-bang31;
#X obj 586 432 s \$0-bang32;
#X obj 495 433 s \$0-bang28;
#X obj 471 411 s \$0-bang27;
#X obj 448 381 s \$0-bang26;
#X obj 425 355 s \$0-bang25;
#X obj 301 356 s \$0-bang21;
#X obj 324 382 s \$0-bang22;
#X obj 349 412 s \$0-bang23;
#X obj 371 436 s \$0-bang24;
#X obj 278 438 s \$0-bang20;
#X obj 255 414 s \$0-bang19;
#X obj 233 390 s \$0-bang18;
#X obj 209 355 s \$0-bang17;
#X obj 117 354 s \$0-bang13;
#X obj 141 380 s \$0-bang14;
#X obj 165 410 s \$0-bang15;
#X obj 187 435 s \$0-bang16;
#X obj 95 436 s \$0-bang12;
#X obj 71 411 s \$0-bang11;
#X obj 48 381 s \$0-bang10;
#X obj 25 355 s \$0-bang9;
#X obj 27 509 s \$0-bang41;
#X obj 51 535 s \$0-bang42;
#X obj 76 565 s \$0-bang43;
#X obj 97 587 s \$0-bang44;
#X obj 121 508 s \$0-bang45;
#X obj 144 534 s \$0-bang46;
#X obj 171 564 s \$0-bang47;
#X obj 193 586 s \$0-bang48;
#X obj 216 509 s \$0-bang49;
#X obj 239 534 s \$0-bang50;
#X obj 263 565 s \$0-bang51;
#X obj 286 591 s \$0-bang52;
#X obj 339 511 s \$0-bang53;
#X obj 369 537 s \$0-bang54;
#X obj 400 567 s \$0-bang55;
#X obj 430 591 s \$0-bang56;
#X obj 461 510 s \$0-bang57;
#X obj 492 536 s \$0-bang58;
#X obj 523 563 s \$0-bang59;
#X obj 553 588 s \$0-bang60;
#X obj 584 511 s \$0-bang61;
#X obj 615 537 s \$0-bang62;
#X obj 645 561 s \$0-bang63;
#X obj 675 587 s \$0-bang64;
#X connect 0 0 6 0;
#X connect 1 0 6 1;
#X connect 2 0 6 2;
#X connect 3 0 8 0;
#X connect 4 0 8 1;
#X connect 5 0 8 2;
#X connect 6 0 7 0;
#X connect 7 0 11 0;
#X connect 8 0 9 0;
#X connect 9 0 10 0;
#X connect 10 0 26 0;
#X connect 10 1 27 0;
#X connect 10 2 28 0;
#X connect 10 3 29 0;
#X connect 10 4 30 0;
#X connect 10 5 31 0;
#X connect 10 6 32 0;
#X connect 10 7 33 0;
#X connect 11 0 18 0;
#X connect 11 1 19 0;
#X connect 11 2 20 0;
#X connect 11 3 21 0;
#X connect 11 4 12 0;
#X connect 12 0 22 0;
#X connect 12 1 23 0;
#X connect 12 2 24 0;
#X connect 12 3 25 0;
#X connect 12 4 13 0;
#X connect 13 0 73 0;
#X connect 13 1 72 0;
#X connect 13 2 71 0;
#X connect 13 3 70 0;
#X connect 13 4 66 0;
#X connect 13 5 67 0;
#X connect 13 6 68 0;
#X connect 13 7 69 0;
#X connect 13 8 65 0;
#X connect 13 9 64 0;
#X connect 13 10 63 0;
#X connect 13 11 62 0;
#X connect 13 12 58 0;
#X connect 13 13 59 0;
#X connect 13 14 60 0;
#X connect 13 15 61 0;
#X connect 13 16 14 0;
#X connect 14 0 57 0;
#X connect 14 1 56 0;
#X connect 14 2 55 0;
#X connect 14 3 54 0;
#X connect 14 4 50 0;
#X connect 14 5 51 0;
#X connect 14 6 52 0;
#X connect 14 7 53 0;
#X connect 14 8 49 0;
#X connect 14 9 48 0;
#X connect 14 10 47 0;
#X connect 14 11 46 0;
#X connect 14 12 42 0;
#X connect 14 13 43 0;
#X connect 14 14 44 0;
#X connect 14 15 45 0;
#X connect 14 16 15 0;
#X connect 15 0 74 0;
#X connect 15 1 75 0;
#X connect 15 2 76 0;
#X connect 15 3 77 0;
#X connect 15 4 78 0;
#X connect 15 5 79 0;
#X connect 15 6 80 0;
#X connect 15 7 81 0;
#X connect 15 8 82 0;
#X connect 15 9 83 0;
#X connect 15 10 84 0;
#X connect 15 11 85 0;
#X connect 15 12 16 0;
#X connect 16 0 86 0;
#X connect 16 1 87 0;
#X connect 16 2 88 0;
#X connect 16 3 89 0;
#X connect 16 4 90 0;
#X connect 16 5 91 0;
#X connect 16 6 92 0;
#X connect 16 7 93 0;
#X connect 16 8 94 0;
#X connect 16 9 95 0;
#X connect 16 10 96 0;
#X connect 16 11 97 0;
#X connect 16 12 17 0;
#X connect 17 0 34 0;
#X connect 17 1 35 0;
#X connect 17 2 36 0;
#X connect 17 3 37 0;
#X connect 17 4 38 0;
#X connect 17 5 39 0;
#X connect 17 6 40 0;
#X connect 17 7 41 0;
#X restore 531 655 pd launchpadInput;
#X obj 198 478 print set;
#X text 459 601 buttonIdx;
#X obj 554 631 / 127;
#X text 439 561 channel (always 1);
#X obj 623 632 / 127;
#X obj 336 288 list;
#X obj 85 32 t b b b;
#X obj 192 27 t b b b;
#X obj 368 320 list;
#X obj 361 264 t a a;
#X text 543 21 still missing: change grid mode \, live update \, reset
top buttons;
#X connect 0 0 1 0;
#X connect 0 0 82 0;
#X connect 1 0 20 0;
#X connect 2 0 24 0;
#X connect 3 0 4 0;
#X connect 4 0 5 0;
#X connect 5 0 66 0;
#X connect 6 0 3 0;
#X connect 7 0 4 1;
#X connect 8 0 5 1;
#X connect 9 0 10 0;
#X connect 9 1 11 0;
#X connect 9 2 12 0;
#X connect 10 0 13 0;
#X connect 11 0 13 0;
#X connect 12 0 13 0;
#X connect 16 0 17 0;
#X connect 17 0 2 0;
#X connect 18 0 17 1;
#X connect 19 0 22 1;
#X connect 21 0 9 0;
#X connect 22 0 16 0;
#X connect 23 0 1 0;
#X connect 24 0 51 0;
#X connect 25 0 88 0;
#X connect 26 0 89 0;
#X connect 27 0 42 0;
#X connect 28 0 47 0;
#X connect 29 0 48 0;
#X connect 30 0 49 0;
#X connect 31 0 32 0;
#X connect 32 0 38 1;
#X connect 33 0 34 0;
#X connect 34 0 32 1;
#X connect 35 0 36 0;
#X connect 36 0 31 0;
#X connect 37 0 1 0;
#X connect 38 0 37 0;
#X connect 39 0 41 0;
#X connect 40 0 38 0;
#X connect 42 0 37 0;
#X connect 43 0 44 0;
#X connect 44 0 45 0;
#X connect 44 1 46 0;
#X connect 45 0 37 0;
#X connect 46 0 37 1;
#X connect 47 0 37 0;
#X connect 48 0 37 0;
#X connect 49 0 37 0;
#X connect 50 0 0 0;
#X connect 50 1 23 0;
#X connect 51 0 50 0;
#X connect 52 0 24 1;
#X connect 53 0 24 1;
#X connect 54 0 60 0;
#X connect 55 0 1 0;
#X connect 56 0 65 0;
#X connect 57 0 65 0;
#X connect 58 0 65 0;
#X connect 59 0 65 0;
#X connect 60 0 56 0;
#X connect 60 1 57 0;
#X connect 60 2 58 0;
#X connect 60 3 59 0;
#X connect 60 4 61 0;
#X connect 60 5 62 0;
#X connect 60 6 63 0;
#X connect 60 7 64 0;
#X connect 61 0 65 0;
#X connect 62 0 65 0;
#X connect 63 0 65 0;
#X connect 64 0 65 0;
#X connect 65 0 91 0;
#X connect 66 0 2 1;
#X connect 66 1 65 1;
#X connect 67 0 1 0;
#X connect 68 0 84 0;
#X connect 69 0 70 0;
#X connect 69 1 68 0;
#X connect 69 2 71 0;
#X connect 70 0 81 0;
#X connect 71 0 81 2;
#X connect 73 0 81 3;
#X connect 74 0 86 0;
#X connect 75 0 81 5;
#X connect 76 0 74 0;
#X connect 76 1 73 0;
#X connect 76 2 75 0;
#X connect 84 0 81 1;
#X connect 86 0 81 4;
#X connect 87 0 55 0;
#X connect 88 0 22 0;
#X connect 88 1 53 0;
#X connect 88 2 87 0;
#X connect 89 0 22 0;
#X connect 89 1 52 0;
#X connect 89 2 90 0;
#X connect 91 0 87 1;
#X connect 91 1 90 1;
#X restore 1036 514 pd launchpadControl;
#X obj 791 97 hradio 40 1 0 8 liveControl empty top_control_idx 0 -8
0 10 -204800 -1 -1 0;
#X obj 791 193 cnv 15 350 320 empty empty empty 20 12 0 14 -262130
-66577 0;
#N canvas 487 159 827 588 launchpadGUI 0;
#X obj 245 115 bng 40 250 50 0 \$0-setButton1 \$0-bang1 empty 17 7
0 10 -13330 -1 -1;
#X obj 295 115 bng 40 250 50 0 \$0-setButton2 \$0-bang2 empty 17 7
0 10 -13330 -1 -1;
#X obj 346 115 bng 40 250 50 0 \$0-setButton3 \$0-bang3 empty 17 7
0 10 -13330 -1 -1;
#X obj 396 115 bng 40 250 50 0 \$0-setButton4 \$0-bang4 empty 17 7
0 10 -13330 -1 -1;
#X obj 445 115 bng 40 250 50 0 \$0-setButton5 \$0-bang5 empty 17 7
0 10 -203904 -1 -1;
#X obj 495 115 bng 40 250 50 0 \$0-setButton6 \$0-bang6 empty 17 7
0 10 -203904 -1 -1;
#X obj 546 115 bng 40 250 50 0 \$0-setButton7 \$0-bang7 empty 17 7
0 10 -203904 -1 -1;
#X obj 596 115 bng 40 250 50 0 \$0-setButton8 \$0-bang8 empty 17 7
0 10 -203904 -1 -1;
#X obj 245 166 bng 40 250 50 0 \$0-setButton9 \$0-bang9 empty 17 7
0 10 -204800 -1 -1;
#X obj 295 166 bng 40 250 50 0 \$0-setButton10 \$0-bang10 empty 17
7 0 10 -204800 -1 -1;
#X obj 346 166 bng 40 250 50 0 \$0-setButton11 \$0-bang11 empty 17
7 0 10 -204800 -1 -1;
#X obj 396 166 bng 40 250 50 0 \$0-setButton12 \$0-bang12 empty 17
7 0 10 -204800 -1 -1;
#X obj 445 166 bng 40 250 50 0 \$0-setButton13 \$0-bang13 empty 17
7 0 10 -4160 -1 -1;
#X obj 495 166 bng 40 250 50 0 \$0-setButton14 \$0-bang14 empty 17
7 0 10 -4160 -1 -1;
#X obj 546 166 bng 40 250 50 0 \$0-setButton15 \$0-bang15 empty 17
7 0 10 -4160 -1 -1;
#X obj 596 166 bng 40 250 50 0 \$0-setButton16 \$0-bang16 empty 17
7 0 10 -4160 -1 -1;
#X obj 245 215 bng 40 250 50 0 \$0-setButton17 \$0-bang17 empty 17
7 0 10 -204800 -1 -1;
#X obj 295 215 bng 40 250 50 0 \$0-setButton18 \$0-bang18 empty 17
7 0 10 -204800 -1 -1;
#X obj 346 215 bng 40 250 50 0 \$0-setButton19 \$0-bang19 empty 17
7 0 10 -204800 -1 -1;
#X obj 396 215 bng 40 250 50 0 \$0-setButton20 \$0-bang20 empty 17
7 0 10 -204800 -1 -1;
#X obj 445 215 bng 40 250 50 0 \$0-setButton21 \$0-bang21 empty 17
7 0 10 -4160 -1 -1;
#X obj 495 215 bng 40 250 50 0 \$0-setButton22 \$0-bang22 empty 17
7 0 10 -4160 -1 -1;
#X obj 546 215 bng 40 250 50 0 \$0-setButton23 \$0-bang23 empty 17
7 0 10 -4160 -1 -1;
#X obj 596 215 bng 40 250 50 0 \$0-setButton24 \$0-bang24 empty 17
7 0 10 -4160 -1 -1;
#X obj 245 266 bng 40 250 50 0 \$0-setButton25 \$0-bang25 empty 17
7 0 10 -204800 -1 -1;
#X obj 295 266 bng 40 250 50 0 \$0-setButton26 \$0-bang26 empty 17
7 0 10 -204800 -1 -1;
#X obj 346 266 bng 40 250 50 0 \$0-setButton27 \$0-bang27 empty 17
7 0 10 -204800 -1 -1;
#X obj 396 266 bng 40 250 50 0 \$0-setButton28 \$0-bang28 empty 17
7 0 10 -204800 -1 -1;
#X obj 445 266 bng 40 250 50 0 \$0-setButton29 \$0-bang29 empty 17
7 0 10 -4160 -1 -1;
#X obj 495 266 bng 40 250 50 0 \$0-setButton30 \$0-bang30 empty 17
7 0 10 -4160 -1 -1;
#X obj 546 266 bng 40 250 50 0 \$0-setButton31 \$0-bang31 empty 17
7 0 10 -4160 -1 -1;
#X obj 596 266 bng 40 250 50 0 \$0-setButton32 \$0-bang32 empty 17
7 0 10 -4160 -1 -1;
#X obj 245 315 bng 40 250 50 0 \$0-setButton33 \$0-bang33 empty 17
7 0 10 -204800 -1 -1;
#X obj 295 315 bng 40 250 50 0 \$0-setButton34 \$0-bang34 empty 17
7 0 10 -204800 -1 -1;
#X obj 346 315 bng 40 250 50 0 \$0-setButton35 \$0-bang35 empty 17
7 0 10 -204800 -1 -1;
#X obj 396 315 bng 40 250 50 0 \$0-setButton36 \$0-bang36 empty 17
7 0 10 -204800 -1 -1;
#X obj 445 315 bng 40 250 50 0 \$0-setButton37 \$0-bang37 empty 17
7 0 10 -4160 -1 -1;
#X obj 495 315 bng 40 250 50 0 \$0-setButton38 \$0-bang38 empty 17
7 0 10 -4160 -1 -1;
#X obj 546 315 bng 40 250 50 0 \$0-setButton39 \$0-bang39 empty 17
7 0 10 -4160 -1 -1;
#X obj 596 315 bng 40 250 50 0 \$0-setButton40 \$0-bang40 empty 17
7 0 10 -4160 -1 -1;
#X obj 245 366 bng 40 250 50 0 \$0-setButton41 \$0-bang41 empty 17
7 0 10 -4032 -1 -1;
#X obj 295 366 bng 40 250 50 0 \$0-setButton42 \$0-bang42 empty 17
7 0 10 -4032 -1 -1;
#X obj 346 366 bng 40 250 50 0 \$0-setButton43 \$0-bang43 empty 17
7 0 10 -4032 -1 -1;
#X obj 396 366 bng 40 250 50 0 \$0-setButton44 \$0-bang44 empty 17
7 0 10 -4032 -1 -1;
#X obj 445 366 bng 40 250 50 0 \$0-setButton45 \$0-bang45 empty 17
7 0 10 -16662 -1 -1;
#X obj 495 366 bng 40 250 50 0 \$0-setButton46 \$0-bang46 empty 17
7 0 10 -16662 -1 -1;
#X obj 546 366 bng 40 250 50 0 \$0-setButton47 \$0-bang47 empty 17
7 0 10 -16662 -1 -1;
#X obj 596 366 bng 40 250 50 0 \$0-setButton48 \$0-bang48 empty 17
7 0 10 -16662 -1 -1;
#X obj 245 415 bng 40 250 50 0 \$0-setButton49 \$0-bang49 empty 17
7 0 10 -4032 -1 -1;
#X obj 295 415 bng 40 250 50 0 \$0-setButton50 \$0-bang50 empty 17
7 0 10 -4032 -1 -1;
#X obj 346 415 bng 40 250 50 0 \$0-setButton51 \$0-bang51 empty 17
7 0 10 -4032 -1 -1;
#X obj 396 415 bng 40 250 50 0 \$0-setButton52 \$0-bang52 empty 17
7 0 10 -4032 -1 -1;
#X obj 445 415 bng 40 250 50 0 \$0-setButton53 \$0-bang53 empty 17
7 0 10 -16662 -1 -1;
#X obj 495 415 bng 40 250 50 0 \$0-setButton54 \$0-bang54 empty 17
7 0 10 -16662 -1 -1;
#X obj 546 415 bng 40 250 50 0 \$0-setButton55 \$0-bang55 empty 17
7 0 10 -16662 -1 -1;
#X obj 596 415 bng 40 250 50 0 \$0-setButton56 \$0-bang56 empty 17
7 0 10 -16662 -1 -1;
#X obj 245 466 bng 40 250 50 0 \$0-setButton57 \$0-bang57 empty 17
7 0 10 -4032 -1 -1;
#X obj 295 466 bng 40 250 50 0 \$0-setButton58 \$0-bang58 empty 17
7 0 10 -4032 -1 -1;
#X obj 346 466 bng 40 250 50 0 \$0-setButton59 \$0-bang59 empty 17
7 0 10 -4032 -1 -1;
#X obj 396 466 bng 40 250 50 0 \$0-setButton60 \$0-bang60 empty 17
7 0 10 -4032 -1 -1;
#X obj 445 466 bng 40 250 50 0 \$0-setButton61 \$0-bang61 empty 17
7 0 10 -16662 -1 -1;
#X obj 495 466 bng 40 250 50 0 \$0-setButton62 \$0-bang62 empty 17
7 0 10 -16662 -1 -1;
#X obj 546 466 bng 40 250 50 0 \$0-setButton63 \$0-bang63 empty 17
7 0 10 -16662 -1 -1;
#X obj 596 466 bng 40 250 50 0 \$0-setButton64 \$0-bang64 empty 17
7 0 10 -16662 -1 -1;
#X obj 666 115 bng 40 250 50 0 cs1 cs1 empty 17 7 0 10 -159808 -1 -1
;
#X obj 666 166 bng 40 250 50 0 cs2 cs2 empty 17 7 0 10 -159808 -1 -1
;
#X obj 666 215 bng 40 250 50 0 cs3 cs3 empty 17 7 0 10 -159808 -1 -1
;
#X obj 666 266 bng 40 250 50 0 cs4 cs4 empty 17 7 0 10 -159808 -1 -1
;
#X obj 666 315 bng 40 250 50 0 cs5 cs5 empty 17 7 0 10 -159808 -1 -1
;
#X obj 666 366 bng 40 250 50 0 cs6 cs6 empty 17 7 0 10 -159808 -1 -1
;
#X obj 666 415 bng 40 250 50 0 cs7 cs7 empty 17 7 0 10 -159808 -1 -1
;
#X obj 666 466 bng 40 250 50 0 cs8 cs8 empty 17 7 0 10 -159808 -1 -1
;
#X obj 245 55 bng 40 250 50 0 ct1 ct1 empty 17 7 0 10 -232576 -1 -1
;
#X obj 295 55 bng 40 250 50 0 ct2 ct2 empty 17 7 0 10 -232576 -1 -1
;
#X obj 346 55 bng 40 250 50 0 ct3 ct3 empty 17 7 0 10 -232576 -1 -1
;
#X obj 396 55 bng 40 250 50 0 ct4 ct4 empty 17 7 0 10 -232576 -1 -1
;
#X obj 445 55 bng 40 250 50 0 ct5 ct5 empty 17 7 0 10 -232576 -1 -1
;
#X obj 495 55 bng 40 250 50 0 ct6 ct6 empty 17 7 0 10 -232576 -1 -1
;
#X obj 546 55 bng 40 250 50 0 ct7 ct7 empty 17 7 0 10 -232576 -1 -1
;
#X obj 596 55 bng 40 250 50 0 ct8 ct8 empty 17 7 0 10 -232576 -1 -1
;
#X text 13 19 GUI for controlling the launchpad live;
#X restore 607 97 pd launchpadGUI;
#N canvas 45 86 866 677 launchpadSounds 0;
#X obj 14 10 r \$0-bang1;
#X obj 146 9 r \$0-bang2;
#X obj 276 8 r \$0-bang3;
#X obj 408 5 r \$0-bang4;
#X obj 546 7 r \$0-bang5;
#X obj 679 5 r \$0-bang6;
#X obj 813 4 r \$0-bang7;
#X obj 950 3 r \$0-bang8;
#X obj 14 108 r \$0-bang9;
#X obj 143 107 r \$0-bang10;
#X obj 274 106 r \$0-bang11;
#X obj 407 108 r \$0-bang12;
#X obj 545 108 r \$0-bang13;
#X obj 681 106 r \$0-bang14;
#X obj 815 108 r \$0-bang15;
#X obj 953 109 r \$0-bang16;
#X obj 14 209 r \$0-bang17;
#X obj 145 208 r \$0-bang18;
#X obj 273 210 r \$0-bang19;
#X obj 409 210 r \$0-bang20;
#X obj 547 210 r \$0-bang21;
#X obj 681 208 r \$0-bang22;
#X obj 813 207 r \$0-bang23;
#X obj 953 209 r \$0-bang24;
#X obj 10 300 r \$0-bang25;
#X obj 144 299 r \$0-bang26;
#X obj 273 298 r \$0-bang27;
#X obj 408 297 r \$0-bang28;
#X obj 545 297 r \$0-bang29;
#X obj 679 295 r \$0-bang30;
#X obj 812 294 r \$0-bang31;
#X obj 952 296 r \$0-bang32;
#X obj 10 387 r \$0-bang33;
#X obj 143 386 r \$0-bang34;
#X obj 273 385 r \$0-bang35;
#X obj 407 386 r \$0-bang36;
#X obj 543 386 r \$0-bang37;
#X obj 678 384 r \$0-bang38;
#X obj 814 383 r \$0-bang39;
#X obj 948 382 r \$0-bang40;
#X obj 10 483 r \$0-bang41;
#X obj 142 482 r \$0-bang42;
#X obj 274 481 r \$0-bang43;
#X obj 406 480 r \$0-bang44;
#X obj 542 480 r \$0-bang45;
#X obj 682 478 r \$0-bang46;
#X obj 814 480 r \$0-bang47;
#X obj 952 481 r \$0-bang48;
#X obj 10 584 r \$0-bang49;
#X obj 142 584 r \$0-bang50;
#X obj 274 583 r \$0-bang51;
#X obj 404 582 r \$0-bang52;
#X obj 540 582 r \$0-bang53;
#X obj 680 580 r \$0-bang54;
#X obj 814 579 r \$0-bang55;
#X obj 952 578 r \$0-bang56;
#X obj 10 686 r \$0-bang57;
#X obj 144 687 r \$0-bang58;
#X obj 274 688 r \$0-bang59;
#X obj 406 689 r \$0-bang60;
#X obj 542 690 r \$0-bang61;
#X obj 682 689 r \$0-bang62;
#X obj 812 688 r \$0-bang63;
#X obj 951 687 r \$0-bang64;
#X obj 9 739 throw~ channel57;
#X obj 952 739 throw~ channel64;
#X obj 813 739 throw~ channel63;
#X obj 681 739 throw~ channel62;
#X obj 541 739 throw~ channel61;
#X obj 405 739 throw~ channel60;
#X obj 273 739 throw~ channel59;
#X obj 143 739 throw~ channel58;
#X obj 953 533 throw~ channel48;
#X obj 953 633 throw~ channel56;
#X obj 813 633 throw~ channel55;
#X obj 681 633 throw~ channel54;
#X obj 541 633 throw~ channel53;
#X obj 405 633 throw~ channel52;
#X obj 273 633 throw~ channel51;
#X obj 143 633 throw~ channel50;
#X obj 143 533 throw~ channel42;
#X obj 273 533 throw~ channel43;
#X obj 405 533 throw~ channel44;
#X obj 541 533 throw~ channel45;
#X obj 681 533 throw~ channel46;
#X obj 813 533 throw~ channel47;
#X obj 9 533 throw~ channel41;
#X obj 9 633 throw~ channel49;
#X obj 10 436 throw~ channel33;
#X obj 143 436 throw~ channel34;
#X obj 272 436 throw~ channel35;
#X obj 406 436 throw~ channel36;
#X obj 542 436 throw~ channel37;
#X obj 679 436 throw~ channel38;
#X obj 813 436 throw~ channel39;
#X obj 949 436 throw~ channel40;
#X obj 14 263 throw~ channel17;
#X obj 144 263 throw~ channel18;
#X obj 274 263 throw~ channel19;
#X obj 408 263 throw~ channel20;
#X obj 546 263 throw~ channel21;
#X obj 680 263 throw~ channel22;
#X obj 14 163 throw~ channel9;
#X obj 144 163 throw~ channel10;
#X obj 274 163 throw~ channel11;
#X obj 408 163 throw~ channel12;
#X obj 546 163 throw~ channel13;
#X obj 680 163 throw~ channel14;
#X obj 814 163 throw~ channel15;
#X obj 814 263 throw~ channel23;
#X obj 954 163 throw~ channel16;
#X obj 954 263 throw~ channel24;
#X obj 953 348 throw~ channel32;
#X obj 812 348 throw~ channel31;
#X obj 678 348 throw~ channel30;
#X obj 546 348 throw~ channel29;
#X obj 409 348 throw~ channel28;
#X obj 274 348 throw~ channel27;
#X obj 143 348 throw~ channel26;
#X obj 10 348 throw~ channel25;
#X obj 950 67 throw~ channel8;
#X obj 812 67 throw~ channel7;
#X obj 678 68 throw~ channel6;
#X obj 547 68 throw~ channel5;
#X obj 409 70 throw~ channel4;
#X obj 275 72 throw~ channel3;
#X obj 145 72 throw~ channel2;
#X obj 15 72 throw~ channel1;
#X obj 146 45 sound;
#X obj 276 44 sound;
#X obj 408 41 sound;
#X obj 546 39 sound;
#X obj 679 41 sound;
#X obj 813 40 sound;
#X obj 143 135 sound;
#X obj 274 134 sound;
#X obj 407 134 sound;
#X obj 545 136 sound;
#X obj 681 134 sound;
#X obj 815 136 sound;
#X obj 813 234 sound;
#X obj 681 235 sound;
#X obj 547 237 sound;
#X obj 409 237 sound;
#X obj 273 237 sound;
#X obj 145 235 sound;
#X obj 144 325 sound;
#X obj 273 324 sound;
#X obj 143 413 sound;
#X obj 273 410 sound;
#X obj 407 413 sound;
#X obj 408 323 sound;
#X obj 545 323 sound;
#X obj 543 413 sound;
#X obj 678 411 sound;
#X obj 679 321 sound;
#X obj 812 320 sound;
#X obj 814 410 sound;
#X obj 814 507 sound;
#X obj 814 605 sound;
#X obj 680 606 sound;
#X obj 682 505 sound;
#X obj 542 507 sound;
#X obj 540 608 sound;
#X obj 406 507 sound;
#X obj 404 608 sound;
#X obj 274 609 sound;
#X obj 274 508 sound;
#X obj 142 509 sound;
#X obj 142 610 sound;
#X obj 812 714 sound;
#X obj 682 715 sound;
#X obj 542 716 sound;
#X obj 406 715 sound;
#X obj 274 714 sound;
#X obj 144 713 sound;
#X obj 951 713 sound;
#X obj 952 604 sound;
#X obj 952 507 sound;
#X obj 948 409 sound;
#X obj 952 322 sound;
#X obj 953 237 sound;
#X obj 953 135 sound;
#X obj 14 46 sound;
#X obj 950 33 sound;
#X obj 14 136 sound;
#X obj 14 236 sound;
#X obj 10 326 sound;
#X obj 10 414 sound;
#X obj 10 510 sound;
#X obj 10 609 sound;
#X obj 10 712 sound;
#X connect 0 0 183 0;
#X connect 1 0 128 0;
#X connect 2 0 129 0;
#X connect 3 0 130 0;
#X connect 4 0 131 0;
#X connect 5 0 132 0;
#X connect 6 0 133 0;
#X connect 7 0 184 0;
#X connect 8 0 185 0;
#X connect 9 0 134 0;
#X connect 10 0 135 0;
#X connect 11 0 136 0;
#X connect 12 0 137 0;
#X connect 13 0 138 0;
#X connect 14 0 139 0;
#X connect 15 0 182 0;
#X connect 16 0 186 0;
#X connect 17 0 145 0;
#X connect 18 0 144 0;
#X connect 19 0 143 0;
#X connect 20 0 142 0;
#X connect 21 0 141 0;
#X connect 22 0 140 0;
#X connect 23 0 181 0;
#X connect 24 0 187 0;
#X connect 25 0 146 0;
#X connect 26 0 147 0;
#X connect 27 0 151 0;
#X connect 28 0 152 0;
#X connect 29 0 155 0;
#X connect 30 0 156 0;
#X connect 31 0 180 0;
#X connect 32 0 188 0;
#X connect 33 0 148 0;
#X connect 34 0 149 0;
#X connect 35 0 150 0;
#X connect 36 0 153 0;
#X connect 37 0 154 0;
#X connect 38 0 157 0;
#X connect 39 0 179 0;
#X connect 40 0 189 0;
#X connect 41 0 168 0;
#X connect 42 0 167 0;
#X connect 43 0 164 0;
#X connect 44 0 162 0;
#X connect 45 0 161 0;
#X connect 46 0 158 0;
#X connect 47 0 178 0;
#X connect 48 0 190 0;
#X connect 49 0 169 0;
#X connect 50 0 166 0;
#X connect 51 0 165 0;
#X connect 52 0 163 0;
#X connect 53 0 160 0;
#X connect 54 0 159 0;
#X connect 55 0 177 0;
#X connect 56 0 191 0;
#X connect 57 0 175 0;
#X connect 58 0 174 0;
#X connect 59 0 173 0;
#X connect 60 0 172 0;
#X connect 61 0 171 0;
#X connect 62 0 170 0;
#X connect 63 0 176 0;
#X connect 128 0 126 0;
#X connect 129 0 125 0;
#X connect 130 0 124 0;
#X connect 131 0 123 0;
#X connect 132 0 122 0;
#X connect 133 0 121 0;
#X connect 134 0 103 0;
#X connect 135 0 104 0;
#X connect 136 0 105 0;
#X connect 137 0 106 0;
#X connect 138 0 107 0;
#X connect 139 0 108 0;
#X connect 140 0 109 0;
#X connect 141 0 101 0;
#X connect 142 0 100 0;
#X connect 143 0 99 0;
#X connect 144 0 98 0;
#X connect 145 0 97 0;
#X connect 146 0 118 0;
#X connect 147 0 117 0;
#X connect 148 0 89 0;
#X connect 149 0 90 0;
#X connect 150 0 91 0;
#X connect 151 0 116 0;
#X connect 152 0 115 0;
#X connect 153 0 92 0;
#X connect 154 0 93 0;
#X connect 155 0 114 0;
#X connect 156 0 113 0;
#X connect 157 0 94 0;
#X connect 158 0 85 0;
#X connect 159 0 74 0;
#X connect 160 0 75 0;
#X connect 161 0 84 0;
#X connect 162 0 83 0;
#X connect 163 0 76 0;
#X connect 164 0 82 0;
#X connect 165 0 77 0;
#X connect 166 0 78 0;
#X connect 167 0 81 0;
#X connect 168 0 80 0;
#X connect 169 0 79 0;
#X connect 170 0 66 0;
#X connect 171 0 67 0;
#X connect 172 0 68 0;
#X connect 173 0 69 0;
#X connect 174 0 70 0;
#X connect 175 0 71 0;
#X connect 176 0 65 0;
#X connect 177 0 73 0;
#X connect 178 0 72 0;
#X connect 179 0 95 0;
#X connect 180 0 112 0;
#X connect 181 0 111 0;
#X connect 182 0 110 0;
#X connect 183 0 127 0;
#X connect 184 0 120 0;
#X connect 185 0 102 0;
#X connect 186 0 96 0;
#X connect 187 0 119 0;
#X connect 188 0 88 0;
#X connect 189 0 86 0;
#X connect 190 0 87 0;
#X connect 191 0 64 0;
#X restore 607 177 pd launchpadSounds;
#X obj 206 411 dac~;
#N canvas 278 337 665 350 controlsTop 0;
#X obj 24 19 r \$0-ct1;
#X obj 94 19 r \$0-ct2;
#X obj 164 19 r \$0-ct3;
#X obj 234 19 r \$0-ct4;
#X obj 304 19 r \$0-ct5;
#X obj 374 19 r \$0-ct6;
#X obj 444 19 r \$0-ct7;
#X obj 514 19 r \$0-ct8;
#X msg 24 70 0;
#X msg 94 71 1;
#X msg 164 70 2;
#X msg 234 71 3;
#X obj 24 151 print topButtons;
#X msg 304 72 4;
#X msg 374 72 5;
#X msg 444 72 6;
#X msg 514 73 7;
#X obj 24 46 select 1;
#X obj 94 46 select 1;
#X obj 164 46 select 1;
#X obj 234 46 select 1;
#X obj 304 47 select 1;
#X obj 374 47 select 1;
#X obj 444 47 select 1;
#X obj 514 47 select 1;
#X connect 0 0 17 0;
#X connect 1 0 18 0;
#X connect 2 0 19 0;
#X connect 3 0 20 0;
#X connect 4 0 21 0;
#X connect 5 0 22 0;
#X connect 6 0 23 0;
#X connect 7 0 24 0;
#X connect 8 0 12 0;
#X connect 9 0 12 0;
#X connect 10 0 12 0;
#X connect 11 0 12 0;
#X connect 13 0 12 0;
#X connect 14 0 12 0;
#X connect 15 0 12 0;
#X connect 16 0 12 0;
#X connect 17 0 8 0;
#X connect 18 0 9 0;
#X connect 19 0 10 0;
#X connect 20 0 11 0;
#X connect 21 0 13 0;
#X connect 22 0 14 0;
#X connect 23 0 15 0;
#X connect 24 0 16 0;
#X restore 608 124 pd controlsTop;
#N canvas 5 86 774 324 controlsSide 0;
#X obj 248 34 r \$0-cs4;
#X obj 38 34 r \$0-cs1;
#X obj 108 34 r \$0-cs2;
#X obj 178 34 r \$0-cs3;
#X obj 318 34 r \$0-cs5;
#X obj 388 34 r \$0-cs6;
#X obj 458 34 r \$0-cs7;
#X obj 528 34 r \$0-cs8;
#X msg 38 90 0;
#X msg 108 91 1;
#X msg 178 90 2;
#X msg 248 91 3;
#X msg 318 92 4;
#X msg 388 92 5;
#X msg 458 92 6;
#X msg 528 93 7;
#X obj 38 66 select 1;
#X obj 108 66 select 1;
#X obj 178 66 select 1;
#X obj 248 66 select 1;
#X obj 318 67 select 1;
#X obj 388 67 select 1;
#X obj 458 67 select 1;
#X obj 528 67 select 1;
#X obj 38 171 print sideButtons;
#X connect 0 0 19 0;
#X connect 1 0 16 0;
#X connect 2 0 17 0;
#X connect 3 0 18 0;
#X connect 4 0 20 0;
#X connect 5 0 21 0;
#X connect 6 0 22 0;
#X connect 7 0 23 0;
#X connect 8 0 24 0;
#X connect 9 0 24 0;
#X connect 10 0 24 0;
#X connect 11 0 24 0;
#X connect 12 0 24 0;
#X connect 13 0 24 0;
#X connect 14 0 24 0;
#X connect 15 0 24 0;
#X connect 16 0 8 0;
#X connect 17 0 9 0;
#X connect 18 0 10 0;
#X connect 19 0 11 0;
#X connect 20 0 12 0;
#X connect 21 0 13 0;
#X connect 22 0 14 0;
#X connect 23 0 15 0;
#X restore 608 151 pd controlsSide;
#N canvas 5 86 1137 677 launchpadEffect 0;
#X obj 545 297 r \$0-bang29;
#X obj 546 348 throw~ channel29;
#X obj 14 10 catch~ channel1;
#X obj 15 72 throw~ channel1E;
#X obj 146 9 catch~ channel2;
#X obj 145 72 throw~ channel2E;
#X obj 276 8 catch~ channel3;
#X obj 275 72 throw~ channel3E;
#X obj 274 106 catch~ channel11;
#X obj 274 163 throw~ channel11E;
#X obj 143 107 catch~ channel10;
#X obj 144 163 throw~ channel10E;
#X obj 14 108 catch~ channel9;
#X obj 14 163 throw~ channel9E;
#X obj 408 5 catch~ channel4;
#X obj 408 70 throw~ channel4E;
#X obj 407 108 catch~ channel12;
#X obj 408 163 throw~ channel12E;
#X obj 409 210 catch~ channel20;
#X obj 408 263 throw~ channel20E;
#X obj 408 297 catch~ channel28;
#X obj 409 348 throw~ channel28E;
#X obj 274 348 throw~ channel27E;
#X obj 273 298 catch~ channel27;
#X obj 144 299 catch~ channel26;
#X obj 143 348 throw~ channel26E;
#X obj 10 348 throw~ channel25E;
#X obj 10 300 catch~ channel25;
#X obj 15 208 catch~ channel17;
#X obj 14 263 throw~ channel17E;
#X obj 145 208 catch~ channel18;
#X obj 144 263 throw~ channel18E;
#X obj 273 210 catch~ channel19;
#X obj 274 263 throw~ channel19E;
#X obj 10 387 catch~ channel33;
#X obj 10 436 throw~ channel33E;
#X obj 143 386 catch~ channel34;
#X obj 143 436 throw~ channel34E;
#X obj 273 385 catch~ channel35;
#X obj 272 436 throw~ channel35E;
#X obj 407 386 catch~ channel36;
#X obj 406 436 throw~ channel36E;
#X obj 546 7 catch~ channel5;
#X obj 547 68 throw~ channel5E;
#X obj 679 5 catch~ channel6;
#X obj 678 68 throw~ channel6E;
#X obj 681 106 catch~ channel14;
#X obj 680 163 throw~ channel14E;
#X obj 545 108 catch~ channel13;
#X obj 546 163 throw~ channel13E;
#X obj 547 210 catch~ channel21;
#X obj 546 263 throw~ channel21E;
#X obj 681 208 catch~ channel22;
#X obj 680 263 throw~ channel22E;
#X obj 679 295 catch~ channel30;
#X obj 678 348 throw~ channel30E;
#X obj 677 382 catch~ channel38;
#X obj 679 436 throw~ channel38E;
#X obj 543 386 catch~ channel37;
#X obj 542 436 throw~ channel37E;
#X obj 10 483 catch~ channel41;
#X obj 9 533 throw~ channel41E;
#X obj 142 482 catch~ channel42;
#X obj 143 533 throw~ channel42E;
#X obj 274 481 catch~ channel43;
#X obj 273 533 throw~ channel43E;
#X obj 406 480 catch~ channel44;
#X obj 405 533 throw~ channel44E;
#X obj 542 480 catch~ channel45;
#X obj 541 533 throw~ channel45E;
#X obj 682 478 catch~ channel46;
#X obj 681 533 throw~ channel46E;
#X obj 10 584 catch~ channel49;
#X obj 9 633 throw~ channel49E;
#X obj 142 584 catch~ channel50;
#X obj 143 633 throw~ channel50E;
#X obj 274 583 catch~ channel51;
#X obj 273 633 throw~ channel51E;
#X obj 404 582 catch~ channel52;
#X obj 405 633 throw~ channel52E;
#X obj 540 582 catch~ channel53;
#X obj 541 633 throw~ channel53E;
#X obj 680 580 catch~ channel54;
#X obj 681 633 throw~ channel54E;
#X obj 10 686 catch~ channel57;
#X obj 9 739 throw~ channel57E;
#X obj 144 687 catch~ channel58;
#X obj 143 739 throw~ channel58E;
#X obj 274 688 catch~ channel59;
#X obj 273 739 throw~ channel59E;
#X obj 406 689 catch~ channel60;
#X obj 405 739 throw~ channel60E;
#X obj 542 690 catch~ channel61;
#X obj 541 739 throw~ channel61E;
#X obj 682 689 catch~ channel62;
#X obj 681 739 throw~ channel62E;
#X obj 813 4 catch~ channel7;
#X obj 812 67 throw~ channel7E;
#X obj 950 3 catch~ channel8;
#X obj 950 67 throw~ channel8E;
#X obj 815 108 catch~ channel15;
#X obj 814 163 throw~ channel15E;
#X obj 953 109 catch~ channel16;
#X obj 954 163 throw~ channel16E;
#X obj 813 207 catch~ channel23;
#X obj 814 263 throw~ channel23E;
#X obj 953 209 catch~ channel24;
#X obj 954 263 throw~ channel24E;
#X obj 812 294 catch~ channel31;
#X obj 812 348 throw~ channel31E;
#X obj 952 296 catch~ channel32;
#X obj 953 348 throw~ channel32E;
#X obj 814 383 catch~ channel39;
#X obj 813 436 throw~ channel39E;
#X obj 948 382 catch~ channel40;
#X obj 949 436 throw~ channel40E;
#X obj 814 480 catch~ channel47;
#X obj 813 533 throw~ channel47E;
#X obj 952 481 catch~ channel48;
#X obj 953 533 throw~ channel48E;
#X obj 814 579 catch~ channel55;
#X obj 813 633 throw~ channel55E;
#X obj 952 578 catch~ channel56;
#X obj 953 633 throw~ channel56E;
#X obj 812 688 catch~ channel63;
#X obj 813 739 throw~ channel63E;
#X obj 951 687 catch~ channel64;
#X obj 952 739 throw~ channel64E;
#N canvas 5 86 450 300 effect 0;
#X obj 7 275 outlet~;
#X obj 13 11 inlet~;
#X connect 1 0 0 0;
#X restore 12 713 pd effect;
#N canvas 5 86 450 300 effect 0;
#X obj 7 275 outlet~;
#X obj 13 11 inlet~;
#X connect 1 0 0 0;
#X restore 143 713 pd effect;
#N canvas 5 86 450 300 effect 0;
#X obj 7 275 outlet~;
#X obj 13 11 inlet~;
#X connect 1 0 0 0;
#X restore 273 713 pd effect;
#N canvas 5 86 450 300 effect 0;
#X obj 7 275 outlet~;
#X obj 13 11 inlet~;
#X connect 1 0 0 0;
#X restore 405 713 pd effect;
#N canvas 5 86 450 300 effect 0;
#X obj 7 275 outlet~;
#X obj 13 11 inlet~;
#X connect 1 0 0 0;
#X restore 545 715 pd effect;
#N canvas 5 86 450 300 effect 0;
#X obj 7 275 outlet~;
#X obj 13 11 inlet~;
#X connect 1 0 0 0;
#X restore 676 715 pd effect;
#N canvas 5 86 450 300 effect 0;
#X obj 7 275 outlet~;
#X obj 13 11 inlet~;
#X connect 1 0 0 0;
#X restore 810 715 pd effect;
#N canvas 5 86 450 300 effect 0;
#X obj 7 275 outlet~;
#X obj 13 11 inlet~;
#X connect 1 0 0 0;
#X restore 948 715 pd effect;
#X obj 14 43 effect;
#X obj 145 43 effect;
#X obj 147 140 effect;
#X obj 16 140 effect;
#X obj 277 140 effect;
#X obj 275 43 effect;
#X obj 407 43 effect;
#X obj 409 140 effect;
#X obj 547 37 effect;
#X obj 678 37 effect;
#X obj 812 37 effect;
#X obj 814 134 effect;
#X obj 680 134 effect;
#X obj 549 134 effect;
#X obj 547 230 effect;
#X obj 545 320 effect;
#X obj 544 410 effect;
#X obj 677 407 effect;
#X obj 676 320 effect;
#X obj 678 230 effect;
#X obj 812 230 effect;
#X obj 810 320 effect;
#X obj 811 407 effect;
#X obj 808 503 effect;
#X obj 674 503 effect;
#X obj 543 503 effect;
#X obj 403 509 effect;
#X obj 406 413 effect;
#X obj 405 326 effect;
#X obj 407 236 effect;
#X obj 275 236 effect;
#X obj 274 413 effect;
#X obj 271 509 effect;
#X obj 141 509 effect;
#X obj 273 326 effect;
#X obj 143 326 effect;
#X obj 145 236 effect;
#X obj 144 413 effect;
#X obj 10 509 effect;
#X obj 13 413 effect;
#X obj 12 326 effect;
#X obj 14 236 effect;
#X obj 10 608 effect;
#X obj 141 608 effect;
#X obj 271 608 effect;
#X obj 403 608 effect;
#X obj 542 609 effect;
#X obj 673 609 effect;
#X obj 807 609 effect;
#X obj 950 37 effect;
#X obj 952 134 effect;
#X obj 953 235 effect;
#X obj 948 320 effect;
#X obj 949 407 effect;
#X obj 946 503 effect;
#X obj 945 609 effect;
#X connect 0 0 151 0;
#X connect 2 0 136 0;
#X connect 4 0 137 0;
#X connect 6 0 141 0;
#X connect 8 0 140 0;
#X connect 10 0 138 0;
#X connect 12 0 139 0;
#X connect 14 0 142 0;
#X connect 16 0 143 0;
#X connect 18 0 165 0;
#X connect 20 0 164 0;
#X connect 23 0 170 0;
#X connect 24 0 171 0;
#X connect 27 0 176 0;
#X connect 28 0 177 0;
#X connect 30 0 172 0;
#X connect 32 0 166 0;
#X connect 34 0 175 0;
#X connect 36 0 173 0;
#X connect 38 0 167 0;
#X connect 40 0 163 0;
#X connect 42 0 144 0;
#X connect 44 0 145 0;
#X connect 46 0 148 0;
#X connect 48 0 149 0;
#X connect 50 0 150 0;
#X connect 52 0 155 0;
#X connect 54 0 154 0;
#X connect 56 0 153 0;
#X connect 58 0 152 0;
#X connect 60 0 174 0;
#X connect 62 0 169 0;
#X connect 64 0 168 0;
#X connect 66 0 162 0;
#X connect 68 0 161 0;
#X connect 70 0 160 0;
#X connect 72 0 178 0;
#X connect 74 0 179 0;
#X connect 76 0 180 0;
#X connect 78 0 181 0;
#X connect 80 0 182 0;
#X connect 82 0 183 0;
#X connect 84 0 128 0;
#X connect 86 0 129 0;
#X connect 88 0 130 0;
#X connect 90 0 131 0;
#X connect 92 0 132 0;
#X connect 94 0 133 0;
#X connect 96 0 146 0;
#X connect 98 0 185 0;
#X connect 100 0 147 0;
#X connect 102 0 186 0;
#X connect 104 0 156 0;
#X connect 106 0 187 0;
#X connect 108 0 157 0;
#X connect 110 0 188 0;
#X connect 112 0 158 0;
#X connect 114 0 189 0;
#X connect 116 0 159 0;
#X connect 118 0 190 0;
#X connect 120 0 184 0;
#X connect 122 0 191 0;
#X connect 124 0 134 0;
#X connect 126 0 135 0;
#X connect 128 0 85 0;
#X connect 129 0 87 0;
#X connect 130 0 89 0;
#X connect 131 0 91 0;
#X connect 132 0 93 0;
#X connect 133 0 95 0;
#X connect 134 0 125 0;
#X connect 135 0 127 0;
#X connect 136 0 3 0;
#X connect 137 0 5 0;
#X connect 138 0 11 0;
#X connect 139 0 13 0;
#X connect 140 0 9 0;
#X connect 141 0 7 0;
#X connect 142 0 15 0;
#X connect 143 0 17 0;
#X connect 144 0 43 0;
#X connect 145 0 45 0;
#X connect 146 0 97 0;
#X connect 147 0 101 0;
#X connect 148 0 47 0;
#X connect 149 0 49 0;
#X connect 150 0 51 0;
#X connect 151 0 1 0;
#X connect 152 0 59 0;
#X connect 153 0 57 0;
#X connect 154 0 55 0;
#X connect 155 0 53 0;
#X connect 156 0 105 0;
#X connect 157 0 109 0;
#X connect 158 0 113 0;
#X connect 159 0 117 0;
#X connect 160 0 71 0;
#X connect 161 0 69 0;
#X connect 162 0 67 0;
#X connect 163 0 41 0;
#X connect 164 0 21 0;
#X connect 165 0 19 0;
#X connect 166 0 33 0;
#X connect 167 0 39 0;
#X connect 168 0 65 0;
#X connect 169 0 63 0;
#X connect 170 0 22 0;
#X connect 171 0 25 0;
#X connect 172 0 31 0;
#X connect 173 0 37 0;
#X connect 174 0 61 0;
#X connect 175 0 35 0;
#X connect 176 0 26 0;
#X connect 177 0 29 0;
#X connect 178 0 73 0;
#X connect 179 0 75 0;
#X connect 180 0 77 0;
#X connect 181 0 79 0;
#X connect 182 0 81 0;
#X connect 183 0 83 0;
#X connect 184 0 121 0;
#X connect 185 0 99 0;
#X connect 186 0 103 0;
#X connect 187 0 107 0;
#X connect 188 0 111 0;
#X connect 189 0 115 0;
#X connect 190 0 119 0;
#X connect 191 0 123 0;
#X restore 607 204 pd launchpadEffect;
#N canvas 5 86 1049 677 busEffect 0;
#X obj 15 88 *~;
#X obj 33 56 tgl 15 1 empty \$0-control1 empty 17 7 0 10 -262144 -1
-1 1 1;
#X obj 135 87 *~;
#X obj 153 55 tgl 15 1 empty \$0-control2 empty 17 7 0 10 -262144 -1
-1 1 1;
#X obj 255 88 *~;
#X obj 273 56 tgl 15 1 empty \$0-control3 empty 17 7 0 10 -262144 -1
-1 1 1;
#X obj 375 87 *~;
#X obj 393 55 tgl 15 1 empty \$0-control4 empty 17 7 0 10 -262144 -1
-1 1 1;
#X obj 495 88 *~;
#X obj 513 56 tgl 15 1 empty \$0-control5 empty 17 7 0 10 -262144 -1
-1 1 1;
#X obj 615 87 *~;
#X obj 633 55 tgl 15 1 empty \$0-control6 empty 17 7 0 10 -262144 -1
-1 1 1;
#X obj 735 88 *~;
#X obj 753 56 tgl 15 1 empty \$0-control7 empty 17 7 0 10 -262144 -1
-1 1 1;
#X obj 855 87 *~;
#X obj 873 55 tgl 15 1 empty \$0-control8 empty 17 7 0 10 -262144 -1
-1 1 1;
#X obj 16 127 throw~ bus1;
#X obj 136 127 throw~ bus1;
#X obj 256 127 throw~ bus1;
#X obj 376 127 throw~ bus1;
#X obj 496 127 throw~ bus1;
#X obj 616 127 throw~ bus1;
#X obj 736 127 throw~ bus1;
#X obj 856 127 throw~ bus1;
#X obj 15 238 *~;
#X obj 33 206 tgl 15 0 empty \$0-control1 empty 17 7 0 10 -262144 -1
-1 0 1;
#X obj 135 237 *~;
#X obj 153 205 tgl 15 0 empty \$0-control2 empty 17 7 0 10 -262144
-1 -1 0 1;
#X obj 255 238 *~;
#X obj 273 206 tgl 15 0 empty \$0-control3 empty 17 7 0 10 -262144
-1 -1 0 1;
#X obj 375 237 *~;
#X obj 393 205 tgl 15 0 empty \$0-control4 empty 17 7 0 10 -262144
-1 -1 0 1;
#X obj 495 238 *~;
#X obj 513 206 tgl 15 0 empty \$0-control5 empty 17 7 0 10 -262144
-1 -1 0 1;
#X obj 615 237 *~;
#X obj 633 205 tgl 15 0 empty \$0-control6 empty 17 7 0 10 -262144
-1 -1 0 1;
#X obj 735 238 *~;
#X obj 753 206 tgl 15 0 empty \$0-control7 empty 17 7 0 10 -262144
-1 -1 0 1;
#X obj 855 237 *~;
#X obj 873 205 tgl 15 0 empty \$0-control8 empty 17 7 0 10 -262144
-1 -1 0 1;
#X obj 16 277 throw~ bus1;
#X obj 136 277 throw~ bus1;
#X obj 256 277 throw~ bus1;
#X obj 376 277 throw~ bus1;
#X obj 496 277 throw~ bus1;
#X obj 616 277 throw~ bus1;
#X obj 736 277 throw~ bus1;
#X obj 856 277 throw~ bus1;
#X obj 15 388 *~;
#X obj 33 356 tgl 15 0 empty \$0-control1 empty 17 7 0 10 -262144 -1
-1 0 1;
#X obj 135 387 *~;
#X obj 153 355 tgl 15 0 empty \$0-control2 empty 17 7 0 10 -262144
-1 -1 0 1;
#X obj 255 388 *~;
#X obj 273 356 tgl 15 0 empty \$0-control3 empty 17 7 0 10 -262144
-1 -1 0 1;
#X obj 375 387 *~;
#X obj 393 355 tgl 15 0 empty \$0-control4 empty 17 7 0 10 -262144
-1 -1 0 1;
#X obj 495 388 *~;
#X obj 513 356 tgl 15 0 empty \$0-control5 empty 17 7 0 10 -262144
-1 -1 0 1;
#X obj 615 387 *~;
#X obj 633 355 tgl 15 0 empty \$0-control6 empty 17 7 0 10 -262144
-1 -1 0 1;
#X obj 735 388 *~;
#X obj 753 356 tgl 15 0 empty \$0-control7 empty 17 7 0 10 -262144
-1 -1 0 1;
#X obj 855 387 *~;
#X obj 873 355 tgl 15 0 empty \$0-control8 empty 17 7 0 10 -262144
-1 -1 0 1;
#X obj 16 427 throw~ bus1;
#X obj 136 427 throw~ bus1;
#X obj 256 427 throw~ bus1;
#X obj 376 427 throw~ bus1;
#X obj 496 427 throw~ bus1;
#X obj 616 427 throw~ bus1;
#X obj 736 427 throw~ bus1;
#X obj 856 427 throw~ bus1;
#X obj 15 538 *~;
#X obj 33 506 tgl 15 0 empty \$0-control1 empty 17 7 0 10 -262144 -1
-1 0 1;
#X obj 135 537 *~;
#X obj 153 505 tgl 15 0 empty \$0-control2 empty 17 7 0 10 -262144
-1 -1 0 1;
#X obj 255 538 *~;
#X obj 273 506 tgl 15 0 empty \$0-control3 empty 17 7 0 10 -262144
-1 -1 0 1;
#X obj 375 537 *~;
#X obj 393 505 tgl 15 0 empty \$0-control4 empty 17 7 0 10 -262144
-1 -1 0 1;
#X obj 495 538 *~;
#X obj 513 506 tgl 15 0 empty \$0-control5 empty 17 7 0 10 -262144
-1 -1 0 1;
#X obj 615 537 *~;
#X obj 633 505 tgl 15 0 empty \$0-control6 empty 17 7 0 10 -262144
-1 -1 0 1;
#X obj 735 538 *~;
#X obj 753 506 tgl 15 0 empty \$0-control7 empty 17 7 0 10 -262144
-1 -1 0 1;
#X obj 855 537 *~;
#X obj 873 505 tgl 15 0 empty \$0-control8 empty 17 7 0 10 -262144
-1 -1 0 1;
#X obj 16 577 throw~ bus1;
#X obj 136 577 throw~ bus1;
#X obj 256 577 throw~ bus1;
#X obj 376 577 throw~ bus1;
#X obj 496 577 throw~ bus1;
#X obj 616 577 throw~ bus1;
#X obj 736 577 throw~ bus1;
#X obj 856 577 throw~ bus1;
#X obj 15 688 *~;
#X obj 33 656 tgl 15 0 empty \$0-control1 empty 17 7 0 10 -262144 -1
-1 0 1;
#X obj 135 687 *~;
#X obj 153 655 tgl 15 0 empty \$0-control2 empty 17 7 0 10 -262144
-1 -1 0 1;
#X obj 255 688 *~;
#X obj 273 656 tgl 15 0 empty \$0-control3 empty 17 7 0 10 -262144
-1 -1 0 1;
#X obj 375 687 *~;
#X obj 393 655 tgl 15 0 empty \$0-control4 empty 17 7 0 10 -262144
-1 -1 0 1;
#X obj 495 688 *~;
#X obj 513 656 tgl 15 0 empty \$0-control5 empty 17 7 0 10 -262144
-1 -1 0 1;
#X obj 615 687 *~;
#X obj 633 655 tgl 15 0 empty \$0-control6 empty 17 7 0 10 -262144
-1 -1 0 1;
#X obj 735 688 *~;
#X obj 753 656 tgl 15 0 empty \$0-control7 empty 17 7 0 10 -262144
-1 -1 0 1;
#X obj 855 687 *~;
#X obj 873 655 tgl 15 0 empty \$0-control8 empty 17 7 0 10 -262144
-1 -1 0 1;
#X obj 16 727 throw~ bus1;
#X obj 136 727 throw~ bus1;
#X obj 256 727 throw~ bus1;
#X obj 376 727 throw~ bus1;
#X obj 496 727 throw~ bus1;
#X obj 616 727 throw~ bus1;
#X obj 736 727 throw~ bus1;
#X obj 856 727 throw~ bus1;
#X obj 15 838 *~;
#X obj 33 806 tgl 15 0 empty \$0-control1 empty 17 7 0 10 -262144 -1
-1 0 1;
#X obj 135 837 *~;
#X obj 153 805 tgl 15 0 empty \$0-control2 empty 17 7 0 10 -262144
-1 -1 0 1;
#X obj 255 838 *~;
#X obj 273 806 tgl 15 0 empty \$0-control3 empty 17 7 0 10 -262144
-1 -1 0 1;
#X obj 375 837 *~;
#X obj 393 805 tgl 15 0 empty \$0-control4 empty 17 7 0 10 -262144
-1 -1 0 1;
#X obj 495 838 *~;
#X obj 513 806 tgl 15 0 empty \$0-control5 empty 17 7 0 10 -262144
-1 -1 0 1;
#X obj 615 837 *~;
#X obj 633 805 tgl 15 0 empty \$0-control6 empty 17 7 0 10 -262144
-1 -1 0 1;
#X obj 735 838 *~;
#X obj 753 806 tgl 15 0 empty \$0-control7 empty 17 7 0 10 -262144
-1 -1 0 1;
#X obj 855 837 *~;
#X obj 873 805 tgl 15 0 empty \$0-control8 empty 17 7 0 10 -262144
-1 -1 0 1;
#X obj 16 877 throw~ bus1;
#X obj 136 877 throw~ bus1;
#X obj 256 877 throw~ bus1;
#X obj 376 877 throw~ bus1;
#X obj 496 877 throw~ bus1;
#X obj 616 877 throw~ bus1;
#X obj 736 877 throw~ bus1;
#X obj 856 877 throw~ bus1;
#X obj 15 988 *~;
#X obj 33 956 tgl 15 0 empty \$0-control1 empty 17 7 0 10 -262144 -1
-1 0 1;
#X obj 135 987 *~;
#X obj 153 955 tgl 15 0 empty \$0-control2 empty 17 7 0 10 -262144
-1 -1 0 1;
#X obj 255 988 *~;
#X obj 273 956 tgl 15 0 empty \$0-control3 empty 17 7 0 10 -262144
-1 -1 0 1;
#X obj 375 987 *~;
#X obj 393 955 tgl 15 0 empty \$0-control4 empty 17 7 0 10 -262144
-1 -1 0 1;
#X obj 495 988 *~;
#X obj 513 956 tgl 15 0 empty \$0-control5 empty 17 7 0 10 -262144
-1 -1 0 1;
#X obj 615 987 *~;
#X obj 633 955 tgl 15 0 empty \$0-control6 empty 17 7 0 10 -262144
-1 -1 0 1;
#X obj 735 988 *~;
#X obj 753 956 tgl 15 0 empty \$0-control7 empty 17 7 0 10 -262144
-1 -1 0 1;
#X obj 855 987 *~;
#X obj 873 955 tgl 15 0 empty \$0-control8 empty 17 7 0 10 -262144
-1 -1 0 1;
#X obj 16 1027 throw~ bus1;
#X obj 136 1027 throw~ bus1;
#X obj 256 1027 throw~ bus1;
#X obj 376 1027 throw~ bus1;
#X obj 496 1027 throw~ bus1;
#X obj 616 1027 throw~ bus1;
#X obj 736 1027 throw~ bus1;
#X obj 856 1027 throw~ bus1;
#X obj 15 1138 *~;
#X obj 33 1106 tgl 15 0 empty \$0-control57 empty 17 7 0 10 -262144
-1 -1 0 1;
#X obj 135 1137 *~;
#X obj 153 1105 tgl 15 0 empty \$0-control58 empty 17 7 0 10 -262144
-1 -1 0 1;
#X obj 255 1138 *~;
#X obj 273 1106 tgl 15 0 empty \$0-control3 empty 17 7 0 10 -262144
-1 -1 0 1;
#X obj 375 1137 *~;
#X obj 393 1105 tgl 15 0 empty \$0-control4 empty 17 7 0 10 -262144
-1 -1 0 1;
#X obj 495 1138 *~;
#X obj 513 1106 tgl 15 0 empty \$0-control5 empty 17 7 0 10 -262144
-1 -1 0 1;
#X obj 615 1137 *~;
#X obj 633 1105 tgl 15 0 empty \$0-control6 empty 17 7 0 10 -262144
-1 -1 0 1;
#X obj 735 1138 *~;
#X obj 753 1106 tgl 15 0 empty \$0-control7 empty 17 7 0 10 -262144
-1 -1 0 1;
#X obj 855 1137 *~;
#X obj 873 1105 tgl 15 0 empty \$0-control8 empty 17 7 0 10 -262144
-1 -1 0 1;
#X obj 16 1177 throw~ bus1;
#X obj 136 1177 throw~ bus1;
#X obj 256 1177 throw~ bus1;
#X obj 376 1177 throw~ bus1;
#X obj 496 1177 throw~ bus1;
#X obj 616 1177 throw~ bus1;
#X obj 736 1177 throw~ bus1;
#X obj 856 1177 throw~ bus1;
#X obj 14 15 catch~ channel1E;
#X obj 134 15 catch~ channel2E;
#X obj 254 15 catch~ channel3E;
#X obj 374 15 catch~ channel4E;
#X obj 494 15 catch~ channel5E;
#X obj 614 15 catch~ channel6E;
#X obj 734 15 catch~ channel7E;
#X obj 854 15 catch~ channel8E;
#X obj 854 165 catch~ channel16E;
#X obj 734 165 catch~ channel15E;
#X obj 614 165 catch~ channel14E;
#X obj 494 165 catch~ channel13E;
#X obj 374 165 catch~ channel12E;
#X obj 254 165 catch~ channel11E;
#X obj 134 165 catch~ channel10E;
#X obj 14 165 catch~ channel9E;
#X obj 14 315 catch~ channel17E;
#X obj 134 315 catch~ channel18E;
#X obj 254 315 catch~ channel19E;
#X obj 374 315 catch~ channel20E;
#X obj 494 315 catch~ channel21E;
#X obj 614 315 catch~ channel22E;
#X obj 734 315 catch~ channel23E;
#X obj 854 315 catch~ channel24E;
#X obj 854 465 catch~ channel32E;
#X obj 734 465 catch~ channel31E;
#X obj 614 465 catch~ channel30E;
#X obj 494 465 catch~ channel29E;
#X obj 374 465 catch~ channel28E;
#X obj 254 465 catch~ channel27E;
#X obj 134 465 catch~ channel26E;
#X obj 14 465 catch~ channel25E;
#X obj 14 615 catch~ channel33E;
#X obj 134 615 catch~ channel34E;
#X obj 254 615 catch~ channel35E;
#X obj 374 615 catch~ channel36E;
#X obj 494 615 catch~ channel37E;
#X obj 614 615 catch~ channel38E;
#X obj 734 615 catch~ channel39E;
#X obj 854 615 catch~ channel40E;
#X obj 14 765 catch~ channel41E;
#X obj 134 765 catch~ channel42E;
#X obj 254 765 catch~ channel43E;
#X obj 374 765 catch~ channel44E;
#X obj 494 765 catch~ channel45E;
#X obj 614 765 catch~ channel46E;
#X obj 734 765 catch~ channel47E;
#X obj 854 765 catch~ channel48E;
#X obj 854 915 catch~ channel56E;
#X obj 734 915 catch~ channel55E;
#X obj 614 915 catch~ channel54E;
#X obj 494 915 catch~ channel53E;
#X obj 374 915 catch~ channel52E;
#X obj 254 915 catch~ channel51E;
#X obj 134 915 catch~ channel50E;
#X obj 14 915 catch~ channel49E;
#X obj 14 1065 catch~ channel57E;
#X obj 134 1065 catch~ channel58E;
#X obj 254 1065 catch~ channel59E;
#X obj 374 1065 catch~ channel60E;
#X obj 494 1065 catch~ channel61E;
#X obj 614 1065 catch~ channel62E;
#X obj 734 1065 catch~ channel63E;
#X obj 854 1065 catch~ channel64E;
#X connect 0 0 16 0;
#X connect 1 0 0 1;
#X connect 2 0 17 0;
#X connect 3 0 2 1;
#X connect 4 0 18 0;
#X connect 5 0 4 1;
#X connect 6 0 19 0;
#X connect 7 0 6 1;
#X connect 8 0 20 0;
#X connect 9 0 8 1;
#X connect 10 0 21 0;
#X connect 11 0 10 1;
#X connect 12 0 22 0;
#X connect 13 0 12 1;
#X connect 14 0 23 0;
#X connect 15 0 14 1;
#X connect 24 0 40 0;
#X connect 25 0 24 1;
#X connect 26 0 41 0;
#X connect 27 0 26 1;
#X connect 28 0 42 0;
#X connect 29 0 28 1;
#X connect 30 0 43 0;
#X connect 31 0 30 1;
#X connect 32 0 44 0;
#X connect 33 0 32 1;
#X connect 34 0 45 0;
#X connect 35 0 34 1;
#X connect 36 0 46 0;
#X connect 37 0 36 1;
#X connect 38 0 47 0;
#X connect 39 0 38 1;
#X connect 48 0 64 0;
#X connect 49 0 48 1;
#X connect 50 0 65 0;
#X connect 51 0 50 1;
#X connect 52 0 66 0;
#X connect 53 0 52 1;
#X connect 54 0 67 0;
#X connect 55 0 54 1;
#X connect 56 0 68 0;
#X connect 57 0 56 1;
#X connect 58 0 69 0;
#X connect 59 0 58 1;
#X connect 60 0 70 0;
#X connect 61 0 60 1;
#X connect 62 0 71 0;
#X connect 63 0 62 1;
#X connect 72 0 88 0;
#X connect 73 0 72 1;
#X connect 74 0 89 0;
#X connect 75 0 74 1;
#X connect 76 0 90 0;
#X connect 77 0 76 1;
#X connect 78 0 91 0;
#X connect 79 0 78 1;
#X connect 80 0 92 0;
#X connect 81 0 80 1;
#X connect 82 0 93 0;
#X connect 83 0 82 1;
#X connect 84 0 94 0;
#X connect 85 0 84 1;
#X connect 86 0 95 0;
#X connect 87 0 86 1;
#X connect 96 0 112 0;
#X connect 97 0 96 1;
#X connect 98 0 113 0;
#X connect 99 0 98 1;
#X connect 100 0 114 0;
#X connect 101 0 100 1;
#X connect 102 0 115 0;
#X connect 103 0 102 1;
#X connect 104 0 116 0;
#X connect 105 0 104 1;
#X connect 106 0 117 0;
#X connect 107 0 106 1;
#X connect 108 0 118 0;
#X connect 109 0 108 1;
#X connect 110 0 119 0;
#X connect 111 0 110 1;
#X connect 120 0 136 0;
#X connect 121 0 120 1;
#X connect 122 0 137 0;
#X connect 123 0 122 1;
#X connect 124 0 138 0;
#X connect 125 0 124 1;
#X connect 126 0 139 0;
#X connect 127 0 126 1;
#X connect 128 0 140 0;
#X connect 129 0 128 1;
#X connect 130 0 141 0;
#X connect 131 0 130 1;
#X connect 132 0 142 0;
#X connect 133 0 132 1;
#X connect 134 0 143 0;
#X connect 135 0 134 1;
#X connect 144 0 160 0;
#X connect 145 0 144 1;
#X connect 146 0 161 0;
#X connect 147 0 146 1;
#X connect 148 0 162 0;
#X connect 149 0 148 1;
#X connect 150 0 163 0;
#X connect 151 0 150 1;
#X connect 152 0 164 0;
#X connect 153 0 152 1;
#X connect 154 0 165 0;
#X connect 155 0 154 1;
#X connect 156 0 166 0;
#X connect 157 0 156 1;
#X connect 158 0 167 0;
#X connect 159 0 158 1;
#X connect 168 0 184 0;
#X connect 169 0 168 1;
#X connect 170 0 185 0;
#X connect 171 0 170 1;
#X connect 172 0 186 0;
#X connect 173 0 172 1;
#X connect 174 0 187 0;
#X connect 175 0 174 1;
#X connect 176 0 188 0;
#X connect 177 0 176 1;
#X connect 178 0 189 0;
#X connect 179 0 178 1;
#X connect 180 0 190 0;
#X connect 181 0 180 1;
#X connect 182 0 191 0;
#X connect 183 0 182 1;
#X connect 192 0 0 0;
#X connect 193 0 2 0;
#X connect 194 0 4 0;
#X connect 195 0 6 0;
#X connect 196 0 8 0;
#X connect 197 0 10 0;
#X connect 198 0 12 0;
#X connect 199 0 14 0;
#X connect 200 0 38 0;
#X connect 201 0 36 0;
#X connect 202 0 34 0;
#X connect 203 0 32 0;
#X connect 204 0 30 0;
#X connect 205 0 28 0;
#X connect 206 0 26 0;
#X connect 207 0 24 0;
#X connect 208 0 48 0;
#X connect 209 0 50 0;
#X connect 210 0 52 0;
#X connect 211 0 54 0;
#X connect 212 0 56 0;
#X connect 213 0 58 0;
#X connect 214 0 60 0;
#X connect 215 0 62 0;
#X connect 216 0 86 0;
#X connect 217 0 84 0;
#X connect 218 0 82 0;
#X connect 219 0 80 0;
#X connect 220 0 78 0;
#X connect 221 0 76 0;
#X connect 222 0 74 0;
#X connect 223 0 72 0;
#X connect 224 0 96 0;
#X connect 225 0 98 0;
#X connect 226 0 100 0;
#X connect 227 0 102 0;
#X connect 228 0 104 0;
#X connect 229 0 106 0;
#X connect 230 0 108 0;
#X connect 231 0 110 0;
#X connect 232 0 120 0;
#X connect 233 0 122 0;
#X connect 234 0 124 0;
#X connect 235 0 126 0;
#X connect 236 0 128 0;
#X connect 237 0 130 0;
#X connect 238 0 132 0;
#X connect 239 0 134 0;
#X connect 240 0 158 0;
#X connect 241 0 156 0;
#X connect 242 0 154 0;
#X connect 243 0 152 0;
#X connect 244 0 150 0;
#X connect 245 0 148 0;
#X connect 246 0 146 0;
#X connect 247 0 144 0;
#X connect 248 0 168 0;
#X connect 249 0 170 0;
#X connect 250 0 172 0;
#X connect 251 0 174 0;
#X connect 252 0 176 0;
#X connect 253 0 178 0;
#X connect 254 0 180 0;
#X connect 255 0 182 0;
#X restore 607 230 pd busEffect;
#N canvas 5 86 1049 677 busClean 0;
#X obj 134 15 catch~ channel2;
#X obj 254 15 catch~ channel3;
#X obj 374 15 catch~ channel4;
#X obj 494 15 catch~ channel5;
#X obj 614 15 catch~ channel6;
#X obj 734 15 catch~ channel7;
#X obj 854 15 catch~ channel8;
#X obj 15 88 *~;
#X obj 33 56 tgl 15 0 empty \$0-control1 empty 17 7 0 10 -262144 -1
-1 0 1;
#X obj 135 87 *~;
#X obj 153 55 tgl 15 0 empty \$0-control2 empty 17 7 0 10 -262144 -1
-1 0 1;
#X obj 255 88 *~;
#X obj 273 56 tgl 15 0 empty \$0-control3 empty 17 7 0 10 -262144 -1
-1 0 1;
#X obj 375 87 *~;
#X obj 393 55 tgl 15 0 empty \$0-control4 empty 17 7 0 10 -262144 -1
-1 0 1;
#X obj 495 88 *~;
#X obj 513 56 tgl 15 0 empty \$0-control5 empty 17 7 0 10 -262144 -1
-1 0 1;
#X obj 615 87 *~;
#X obj 633 55 tgl 15 0 empty \$0-control6 empty 17 7 0 10 -262144 -1
-1 0 1;
#X obj 735 88 *~;
#X obj 753 56 tgl 15 0 empty \$0-control7 empty 17 7 0 10 -262144 -1
-1 0 1;
#X obj 855 87 *~;
#X obj 873 55 tgl 15 0 empty \$0-control8 empty 17 7 0 10 -262144 -1
-1 0 1;
#X obj 15 238 *~;
#X obj 33 206 tgl 15 0 empty \$0-control1 empty 17 7 0 10 -262144 -1
-1 0 1;
#X obj 135 237 *~;
#X obj 153 205 tgl 15 0 empty \$0-control2 empty 17 7 0 10 -262144
-1 -1 0 1;
#X obj 255 238 *~;
#X obj 273 206 tgl 15 0 empty \$0-control3 empty 17 7 0 10 -262144
-1 -1 0 1;
#X obj 375 237 *~;
#X obj 393 205 tgl 15 0 empty \$0-control4 empty 17 7 0 10 -262144
-1 -1 0 1;
#X obj 495 238 *~;
#X obj 513 206 tgl 15 0 empty \$0-control5 empty 17 7 0 10 -262144
-1 -1 0 1;
#X obj 615 237 *~;
#X obj 633 205 tgl 15 0 empty \$0-control6 empty 17 7 0 10 -262144
-1 -1 0 1;
#X obj 735 238 *~;
#X obj 753 206 tgl 15 0 empty \$0-control7 empty 17 7 0 10 -262144
-1 -1 0 1;
#X obj 855 237 *~;
#X obj 873 205 tgl 15 0 empty \$0-control8 empty 17 7 0 10 -262144
-1 -1 0 1;
#X obj 15 388 *~;
#X obj 33 356 tgl 15 0 empty \$0-control1 empty 17 7 0 10 -262144 -1
-1 0 1;
#X obj 135 387 *~;
#X obj 153 355 tgl 15 0 empty \$0-control2 empty 17 7 0 10 -262144
-1 -1 0 1;
#X obj 255 388 *~;
#X obj 273 356 tgl 15 0 empty \$0-control3 empty 17 7 0 10 -262144
-1 -1 0 1;
#X obj 375 387 *~;
#X obj 393 355 tgl 15 0 empty \$0-control4 empty 17 7 0 10 -262144
-1 -1 0 1;
#X obj 495 388 *~;
#X obj 513 356 tgl 15 0 empty \$0-control5 empty 17 7 0 10 -262144
-1 -1 0 1;
#X obj 615 387 *~;
#X obj 633 355 tgl 15 0 empty \$0-control6 empty 17 7 0 10 -262144
-1 -1 0 1;
#X obj 735 388 *~;
#X obj 753 356 tgl 15 0 empty \$0-control7 empty 17 7 0 10 -262144
-1 -1 0 1;
#X obj 855 387 *~;
#X obj 873 355 tgl 15 0 empty \$0-control8 empty 17 7 0 10 -262144
-1 -1 0 1;
#X obj 15 538 *~;
#X obj 33 506 tgl 15 0 empty \$0-control1 empty 17 7 0 10 -262144 -1
-1 0 1;
#X obj 135 537 *~;
#X obj 153 505 tgl 15 0 empty \$0-control2 empty 17 7 0 10 -262144
-1 -1 0 1;
#X obj 255 538 *~;
#X obj 273 506 tgl 15 0 empty \$0-control3 empty 17 7 0 10 -262144
-1 -1 0 1;
#X obj 375 537 *~;
#X obj 393 505 tgl 15 0 empty \$0-control4 empty 17 7 0 10 -262144
-1 -1 0 1;
#X obj 495 538 *~;
#X obj 513 506 tgl 15 0 empty \$0-control5 empty 17 7 0 10 -262144
-1 -1 0 1;
#X obj 615 537 *~;
#X obj 633 505 tgl 15 0 empty \$0-control6 empty 17 7 0 10 -262144
-1 -1 0 1;
#X obj 735 538 *~;
#X obj 753 506 tgl 15 0 empty \$0-control7 empty 17 7 0 10 -262144
-1 -1 0 1;
#X obj 855 537 *~;
#X obj 873 505 tgl 15 0 empty \$0-control8 empty 17 7 0 10 -262144
-1 -1 0 1;
#X obj 15 688 *~;
#X obj 33 656 tgl 15 0 empty \$0-control1 empty 17 7 0 10 -262144 -1
-1 0 1;
#X obj 135 687 *~;
#X obj 153 655 tgl 15 0 empty \$0-control2 empty 17 7 0 10 -262144
-1 -1 0 1;
#X obj 255 688 *~;
#X obj 273 656 tgl 15 0 empty \$0-control3 empty 17 7 0 10 -262144
-1 -1 0 1;
#X obj 375 687 *~;
#X obj 393 655 tgl 15 0 empty \$0-control4 empty 17 7 0 10 -262144
-1 -1 0 1;
#X obj 495 688 *~;
#X obj 513 656 tgl 15 0 empty \$0-control5 empty 17 7 0 10 -262144
-1 -1 0 1;
#X obj 615 687 *~;
#X obj 633 655 tgl 15 0 empty \$0-control6 empty 17 7 0 10 -262144
-1 -1 0 1;
#X obj 735 688 *~;
#X obj 753 656 tgl 15 0 empty \$0-control7 empty 17 7 0 10 -262144
-1 -1 0 1;
#X obj 855 687 *~;
#X obj 873 655 tgl 15 0 empty \$0-control8 empty 17 7 0 10 -262144
-1 -1 0 1;
#X obj 15 838 *~;
#X obj 33 806 tgl 15 0 empty \$0-control1 empty 17 7 0 10 -262144 -1
-1 0 1;
#X obj 135 837 *~;
#X obj 153 805 tgl 15 0 empty \$0-control2 empty 17 7 0 10 -262144
-1 -1 0 1;
#X obj 255 838 *~;
#X obj 273 806 tgl 15 0 empty \$0-control3 empty 17 7 0 10 -262144
-1 -1 0 1;
#X obj 375 837 *~;
#X obj 393 805 tgl 15 0 empty \$0-control4 empty 17 7 0 10 -262144
-1 -1 0 1;
#X obj 495 838 *~;
#X obj 513 806 tgl 15 0 empty \$0-control5 empty 17 7 0 10 -262144
-1 -1 0 1;
#X obj 615 837 *~;
#X obj 633 805 tgl 15 0 empty \$0-control6 empty 17 7 0 10 -262144
-1 -1 0 1;
#X obj 735 838 *~;
#X obj 753 806 tgl 15 0 empty \$0-control7 empty 17 7 0 10 -262144
-1 -1 0 1;
#X obj 855 837 *~;
#X obj 873 805 tgl 15 0 empty \$0-control8 empty 17 7 0 10 -262144
-1 -1 0 1;
#X obj 15 988 *~;
#X obj 33 956 tgl 15 0 empty \$0-control1 empty 17 7 0 10 -262144 -1
-1 0 1;
#X obj 135 987 *~;
#X obj 153 955 tgl 15 0 empty \$0-control2 empty 17 7 0 10 -262144
-1 -1 0 1;
#X obj 255 988 *~;
#X obj 273 956 tgl 15 0 empty \$0-control3 empty 17 7 0 10 -262144
-1 -1 0 1;
#X obj 375 987 *~;
#X obj 393 955 tgl 15 0 empty \$0-control4 empty 17 7 0 10 -262144
-1 -1 0 1;
#X obj 495 988 *~;
#X obj 513 956 tgl 15 0 empty \$0-control5 empty 17 7 0 10 -262144
-1 -1 0 1;
#X obj 615 987 *~;
#X obj 633 955 tgl 15 0 empty \$0-control6 empty 17 7 0 10 -262144
-1 -1 0 1;
#X obj 735 988 *~;
#X obj 753 956 tgl 15 0 empty \$0-control7 empty 17 7 0 10 -262144
-1 -1 0 1;
#X obj 855 987 *~;
#X obj 873 955 tgl 15 0 empty \$0-control8 empty 17 7 0 10 -262144
-1 -1 0 1;
#X obj 15 1138 *~;
#X obj 33 1106 tgl 15 0 empty \$0-control57 empty 17 7 0 10 -262144
-1 -1 0 1;
#X obj 135 1137 *~;
#X obj 153 1105 tgl 15 0 empty \$0-control58 empty 17 7 0 10 -262144
-1 -1 0 1;
#X obj 255 1138 *~;
#X obj 273 1106 tgl 15 0 empty \$0-control3 empty 17 7 0 10 -262144
-1 -1 0 1;
#X obj 375 1137 *~;
#X obj 393 1105 tgl 15 0 empty \$0-control4 empty 17 7 0 10 -262144
-1 -1 0 1;
#X obj 495 1138 *~;
#X obj 513 1106 tgl 15 0 empty \$0-control5 empty 17 7 0 10 -262144
-1 -1 0 1;
#X obj 615 1137 *~;
#X obj 633 1105 tgl 15 0 empty \$0-control6 empty 17 7 0 10 -262144
-1 -1 0 1;
#X obj 735 1138 *~;
#X obj 753 1106 tgl 15 0 empty \$0-control7 empty 17 7 0 10 -262144
-1 -1 0 1;
#X obj 855 1137 *~;
#X obj 873 1105 tgl 15 0 empty \$0-control8 empty 17 7 0 10 -262144
-1 -1 0 1;
#X obj 14 165 catch~ channel9;
#X obj 134 165 catch~ channel10;
#X obj 254 165 catch~ channel11;
#X obj 374 165 catch~ channel12;
#X obj 494 165 catch~ channel13;
#X obj 614 165 catch~ channel14;
#X obj 734 165 catch~ channel15;
#X obj 854 165 catch~ channel16;
#X obj 854 315 catch~ channel24;
#X obj 734 315 catch~ channel23;
#X obj 614 315 catch~ channel22;
#X obj 494 315 catch~ channel21;
#X obj 374 315 catch~ channel20;
#X obj 254 315 catch~ channel19;
#X obj 134 315 catch~ channel18;
#X obj 14 315 catch~ channel17;
#X obj 14 465 catch~ channel25;
#X obj 134 465 catch~ channel26;
#X obj 254 465 catch~ channel27;
#X obj 374 465 catch~ channel28;
#X obj 494 465 catch~ channel29;
#X obj 614 465 catch~ channel30;
#X obj 734 465 catch~ channel31;
#X obj 854 465 catch~ channel32;
#X obj 854 615 catch~ channel40;
#X obj 734 615 catch~ channel39;
#X obj 614 615 catch~ channel38;
#X obj 494 615 catch~ channel37;
#X obj 374 615 catch~ channel36;
#X obj 254 615 catch~ channel35;
#X obj 134 615 catch~ channel34;
#X obj 14 615 catch~ channel33;
#X obj 14 765 catch~ channel41;
#X obj 134 765 catch~ channel42;
#X obj 254 765 catch~ channel43;
#X obj 374 765 catch~ channel44;
#X obj 494 765 catch~ channel45;
#X obj 614 765 catch~ channel46;
#X obj 734 765 catch~ channel47;
#X obj 854 765 catch~ channel48;
#X obj 854 915 catch~ channel56;
#X obj 734 915 catch~ channel55;
#X obj 614 915 catch~ channel54;
#X obj 494 915 catch~ channel53;
#X obj 374 915 catch~ channel52;
#X obj 254 915 catch~ channel51;
#X obj 134 915 catch~ channel50;
#X obj 14 915 catch~ channel49;
#X obj 14 1065 catch~ channel57;
#X obj 134 1065 catch~ channel58;
#X obj 254 1065 catch~ channel59;
#X obj 374 1065 catch~ channel60;
#X obj 494 1065 catch~ channel61;
#X obj 614 1065 catch~ channel62;
#X obj 734 1065 catch~ channel63;
#X obj 854 1065 catch~ channel64;
#X obj 16 127 throw~ bus2;
#X obj 136 127 throw~ bus2;
#X obj 256 127 throw~ bus2;
#X obj 376 127 throw~ bus2;
#X obj 496 127 throw~ bus2;
#X obj 616 127 throw~ bus2;
#X obj 736 127 throw~ bus2;
#X obj 856 127 throw~ bus2;
#X obj 856 277 throw~ bus2;
#X obj 736 277 throw~ bus2;
#X obj 616 277 throw~ bus2;
#X obj 496 277 throw~ bus2;
#X obj 376 277 throw~ bus2;
#X obj 256 277 throw~ bus2;
#X obj 136 277 throw~ bus2;
#X obj 16 277 throw~ bus2;
#X obj 16 427 throw~ bus2;
#X obj 136 427 throw~ bus2;
#X obj 256 427 throw~ bus2;
#X obj 376 427 throw~ bus2;
#X obj 496 427 throw~ bus2;
#X obj 616 427 throw~ bus2;
#X obj 736 427 throw~ bus2;
#X obj 856 427 throw~ bus2;
#X obj 856 577 throw~ bus2;
#X obj 736 577 throw~ bus2;
#X obj 616 577 throw~ bus2;
#X obj 496 577 throw~ bus2;
#X obj 376 577 throw~ bus2;
#X obj 256 577 throw~ bus2;
#X obj 136 577 throw~ bus2;
#X obj 16 577 throw~ bus2;
#X obj 16 727 throw~ bus2;
#X obj 16 877 throw~ bus2;
#X obj 16 1027 throw~ bus2;
#X obj 136 877 throw~ bus2;
#X obj 136 1027 throw~ bus2;
#X obj 256 877 throw~ bus2;
#X obj 256 1027 throw~ bus2;
#X obj 376 877 throw~ bus2;
#X obj 376 1027 throw~ bus2;
#X obj 496 1027 throw~ bus2;
#X obj 136 727 throw~ bus2;
#X obj 256 727 throw~ bus2;
#X obj 376 727 throw~ bus2;
#X obj 496 727 throw~ bus2;
#X obj 616 727 throw~ bus2;
#X obj 736 727 throw~ bus2;
#X obj 856 727 throw~ bus2;
#X obj 856 877 throw~ bus2;
#X obj 736 877 throw~ bus2;
#X obj 616 877 throw~ bus2;
#X obj 496 877 throw~ bus2;
#X obj 616 1027 throw~ bus2;
#X obj 736 1027 throw~ bus2;
#X obj 856 1027 throw~ bus2;
#X obj 856 1177 throw~ bus2;
#X obj 736 1177 throw~ bus2;
#X obj 616 1177 throw~ bus2;
#X obj 496 1177 throw~ bus2;
#X obj 376 1177 throw~ bus2;
#X obj 256 1177 throw~ bus2;
#X obj 136 1177 throw~ bus2;
#X obj 16 1177 throw~ bus2;
#X obj 14 15 catch~ channel1;
#X connect 0 0 9 0;
#X connect 1 0 11 0;
#X connect 2 0 13 0;
#X connect 3 0 15 0;
#X connect 4 0 17 0;
#X connect 5 0 19 0;
#X connect 6 0 21 0;
#X connect 7 0 191 0;
#X connect 8 0 7 1;
#X connect 9 0 192 0;
#X connect 10 0 9 1;
#X connect 11 0 193 0;
#X connect 12 0 11 1;
#X connect 13 0 194 0;
#X connect 14 0 13 1;
#X connect 15 0 195 0;
#X connect 16 0 15 1;
#X connect 17 0 196 0;
#X connect 18 0 17 1;
#X connect 19 0 197 0;
#X connect 20 0 19 1;
#X connect 21 0 198 0;
#X connect 22 0 21 1;
#X connect 23 0 206 0;
#X connect 24 0 23 1;
#X connect 25 0 205 0;
#X connect 26 0 25 1;
#X connect 27 0 204 0;
#X connect 28 0 27 1;
#X connect 29 0 203 0;
#X connect 30 0 29 1;
#X connect 31 0 202 0;
#X connect 32 0 31 1;
#X connect 33 0 201 0;
#X connect 34 0 33 1;
#X connect 35 0 200 0;
#X connect 36 0 35 1;
#X connect 37 0 199 0;
#X connect 38 0 37 1;
#X connect 39 0 207 0;
#X connect 40 0 39 1;
#X connect 41 0 208 0;
#X connect 42 0 41 1;
#X connect 43 0 209 0;
#X connect 44 0 43 1;
#X connect 45 0 210 0;
#X connect 46 0 45 1;
#X connect 47 0 211 0;
#X connect 48 0 47 1;
#X connect 49 0 212 0;
#X connect 50 0 49 1;
#X connect 51 0 213 0;
#X connect 52 0 51 1;
#X connect 53 0 214 0;
#X connect 54 0 53 1;
#X connect 55 0 222 0;
#X connect 56 0 55 1;
#X connect 57 0 221 0;
#X connect 58 0 57 1;
#X connect 59 0 220 0;
#X connect 60 0 59 1;
#X connect 61 0 219 0;
#X connect 62 0 61 1;
#X connect 63 0 218 0;
#X connect 64 0 63 1;
#X connect 65 0 217 0;
#X connect 66 0 65 1;
#X connect 67 0 216 0;
#X connect 68 0 67 1;
#X connect 69 0 215 0;
#X connect 70 0 69 1;
#X connect 71 0 223 0;
#X connect 72 0 71 1;
#X connect 73 0 233 0;
#X connect 74 0 73 1;
#X connect 75 0 234 0;
#X connect 76 0 75 1;
#X connect 77 0 235 0;
#X connect 78 0 77 1;
#X connect 79 0 236 0;
#X connect 80 0 79 1;
#X connect 81 0 237 0;
#X connect 82 0 81 1;
#X connect 83 0 238 0;
#X connect 84 0 83 1;
#X connect 85 0 239 0;
#X connect 86 0 85 1;
#X connect 87 0 224 0;
#X connect 88 0 87 1;
#X connect 89 0 226 0;
#X connect 90 0 89 1;
#X connect 91 0 228 0;
#X connect 92 0 91 1;
#X connect 93 0 230 0;
#X connect 94 0 93 1;
#X connect 95 0 243 0;
#X connect 96 0 95 1;
#X connect 97 0 242 0;
#X connect 98 0 97 1;
#X connect 99 0 241 0;
#X connect 100 0 99 1;
#X connect 101 0 240 0;
#X connect 102 0 101 1;
#X connect 103 0 225 0;
#X connect 104 0 103 1;
#X connect 105 0 227 0;
#X connect 106 0 105 1;
#X connect 107 0 229 0;
#X connect 108 0 107 1;
#X connect 109 0 231 0;
#X connect 110 0 109 1;
#X connect 111 0 232 0;
#X connect 112 0 111 1;
#X connect 113 0 244 0;
#X connect 114 0 113 1;
#X connect 115 0 245 0;
#X connect 116 0 115 1;
#X connect 117 0 246 0;
#X connect 118 0 117 1;
#X connect 119 0 254 0;
#X connect 120 0 119 1;
#X connect 121 0 253 0;
#X connect 122 0 121 1;
#X connect 123 0 252 0;
#X connect 124 0 123 1;
#X connect 125 0 251 0;
#X connect 126 0 125 1;
#X connect 127 0 250 0;
#X connect 128 0 127 1;
#X connect 129 0 249 0;
#X connect 130 0 129 1;
#X connect 131 0 248 0;
#X connect 132 0 131 1;
#X connect 133 0 247 0;
#X connect 134 0 133 1;
#X connect 135 0 23 0;
#X connect 136 0 25 0;
#X connect 137 0 27 0;
#X connect 138 0 29 0;
#X connect 139 0 31 0;
#X connect 140 0 33 0;
#X connect 141 0 35 0;
#X connect 142 0 37 0;
#X connect 143 0 53 0;
#X connect 144 0 51 0;
#X connect 145 0 49 0;
#X connect 146 0 47 0;
#X connect 147 0 45 0;
#X connect 148 0 43 0;
#X connect 149 0 41 0;
#X connect 150 0 39 0;
#X connect 151 0 55 0;
#X connect 152 0 57 0;
#X connect 153 0 59 0;
#X connect 154 0 61 0;
#X connect 155 0 63 0;
#X connect 156 0 65 0;
#X connect 157 0 67 0;
#X connect 158 0 69 0;
#X connect 159 0 85 0;
#X connect 160 0 83 0;
#X connect 161 0 81 0;
#X connect 162 0 79 0;
#X connect 163 0 77 0;
#X connect 164 0 75 0;
#X connect 165 0 73 0;
#X connect 166 0 71 0;
#X connect 167 0 87 0;
#X connect 168 0 89 0;
#X connect 169 0 91 0;
#X connect 170 0 93 0;
#X connect 171 0 95 0;
#X connect 172 0 97 0;
#X connect 173 0 99 0;
#X connect 174 0 101 0;
#X connect 175 0 117 0;
#X connect 176 0 115 0;
#X connect 177 0 113 0;
#X connect 178 0 111 0;
#X connect 179 0 109 0;
#X connect 180 0 107 0;
#X connect 181 0 105 0;
#X connect 182 0 103 0;
#X connect 183 0 119 0;
#X connect 184 0 121 0;
#X connect 185 0 123 0;
#X connect 186 0 125 0;
#X connect 187 0 127 0;
#X connect 188 0 129 0;
#X connect 189 0 131 0;
#X connect 190 0 133 0;
#X connect 255 0 7 0;
#X restore 607 258 pd busClean;
#X obj 207 292 catch~ busEffect;
#N canvas 5 86 450 300 panning 0;
#X obj 76 70 *~;
#X obj 116 70 *~;
#X obj 76 19 inlet~;
#X obj 75 120 outlet~;
#X obj 208 0 t f f;
#X obj 240 24 - 1;
#X obj 240 50 abs;
#X obj 208 -27 inlet;
#X obj 139 121 outlet~;
#X connect 0 0 3 0;
#X connect 1 0 8 0;
#X connect 2 0 0 0;
#X connect 2 0 1 0;
#X connect 4 0 1 1;
#X connect 4 1 5 0;
#X connect 5 0 6 0;
#X connect 6 0 0 1;
#X connect 7 0 4 0;
#X restore 207 371 pd panning;
#X obj 277 55 hsl 192 40 0 1 0 1 empty empty empty -2 -8 0 10 -191407
-1 -1 9600 1;
#X text 279 99 left;
#X text 433 99 right;
#X obj 207 339 *~;
#X obj 341 120 vsl 40 192 0 1 0 0 empty empty empty 0 -9 0 10 -191407
-1 -1 0 1;
#X floatatom 341 320 5 0 0 0 - - -;
#X text 762 536 TODO: automated programming \, add sounds \, add effects
\, make mixing desk;
#X obj 835 374 hradio 40 1 0 2 empty empty empty 0 -8 0 10 -232576
-1 -1 1;
#X obj 835 414 s displayBuffer;
#X obj 835 444 hradio 40 1 0 2 empty empty empty 0 -8 0 10 -232576
-1 -1 0;
#X obj 835 484 s updateBuffer;
#X text 890 76 (can not be reset in isolation);
#X obj 1112 97 cnv 15 60 416 empty empty empty 20 12 0 14 -262130 -66577
0;
#X obj 791 153 hradio 40 1 0 9 column empty column_idx 0 -8 0 10 -4032
-1 -1 1;
#X obj 797 233 hradio 40 1 0 2 red empty red_on/off 0 -8 0 10 -258113
-1 -1 1;
#X obj 889 233 hradio 40 1 0 2 green set green_on/off 0 -8 0 10 -4034
-1 -1 1;
#X obj 1029 208 hsl 120 25 1 16 0 0 num empty brightness_numerator
-2 -8 0 10 -257985 -1 -1 0 1;
#X obj 1029 248 hsl 120 25 3 18 0 0 denom empty brightness_denominator
-2 -8 0 10 -257985 -1 -1 0 1;
#X text 1110 130 side_ctr;
#X msg 983 285 resetAll;
#X obj 983 313 s resetAll;
#X obj 983 366 s allOnLow;
#X msg 983 339 allLow;
#X msg 1073 340 allMedium;
#X msg 1073 285 allFull;
#X obj 1073 312 s allOnFull;
#X obj 1073 367 s allOnMedium;
#X obj 797 331 s set;
#X obj 797 304 t b;
#X msg 797 284 setButton;
#X msg 879 284 resetButton;
#X obj 879 304 s reset;
#X text 847 331 set/reset buttons;
#X msg 1027 447 flash;
#X msg 991 422 doubleBuffer;
#X msg 1100 445 copy;
#X msg 1064 398 singleBuffer;
#N canvas 5 86 450 300 launchpadMode 0;
#X obj 16 13 inlet;
#X obj 88 13 inlet;
#X obj 131 13 inlet;
#X obj 190 13 inlet;
#X msg 18 105 normal;
#X obj 18 138 s mode;
#X obj 190 119 s bufferMode;
#X msg 141 99 other;
#X obj 88 99 t a a;
#X obj 18 71 t b b;
#X obj 131 66 t b;
#X obj 18 48 loadbang;
#X connect 0 0 5 0;
#X connect 1 0 8 0;
#X connect 2 0 10 0;
#X connect 3 0 6 0;
#X connect 4 0 5 0;
#X connect 7 0 6 0;
#X connect 8 0 5 0;
#X connect 8 1 6 0;
#X connect 9 0 4 0;
#X connect 9 1 7 0;
#X connect 10 0 4 0;
#X connect 11 0 9 0;
#X restore 991 475 pd launchpadMode;
#X text 976 397 buffer mode;
#X connect 12 0 17 0;
#X connect 13 0 6 0;
#X connect 13 1 6 1;
#X connect 14 0 13 1;
#X connect 17 0 13 0;
#X connect 18 0 19 0;
#X connect 19 0 17 1;
#X connect 21 0 22 0;
#X connect 23 0 24 0;
#X connect 33 0 34 0;
#X connect 36 0 35 0;
#X connect 37 0 40 0;
#X connect 38 0 39 0;
#X connect 42 0 41 0;
#X connect 43 0 42 0;
#X connect 44 0 45 0;
#X connect 47 0 51 1;
#X connect 48 0 51 0;
#X connect 49 0 51 3;
#X connect 50 0 51 2;
